%FSLAX45Y45*%
G04 Gerber Fmt 4.5, Leading zero omitted, Abs format (unit mm)*
G04 Created by KiCad (PCBNEW (6.0.5)) date 2023-10-24 21:46:59*
%MOMM*%
%LPD*%
G01*
G04 APERTURE LIST*
%TA.AperFunction,Profile*%
%ADD10C,0.100000*%
%TD*%
%ADD11C,0.200000*%
G04 APERTURE END LIST*
D10*
X14137640Y-10464800D02*
X16286480Y-10464800D01*
X16286480Y-10464800D02*
X16286480Y-6738620D01*
X16286480Y-6738620D02*
X14137640Y-6738620D01*
X14137640Y-6738620D02*
X14137640Y-10464800D01*
D11*
X14390259Y-10780276D02*
X14390259Y-10580276D01*
X14437878Y-10580276D01*
X14466449Y-10589800D01*
X14485497Y-10608848D01*
X14495021Y-10627895D01*
X14504545Y-10665990D01*
X14504545Y-10694562D01*
X14495021Y-10732657D01*
X14485497Y-10751705D01*
X14466449Y-10770752D01*
X14437878Y-10780276D01*
X14390259Y-10780276D01*
X14590259Y-10780276D02*
X14590259Y-10646943D01*
X14590259Y-10685038D02*
X14599783Y-10665990D01*
X14609307Y-10656467D01*
X14628354Y-10646943D01*
X14647402Y-10646943D01*
X14714068Y-10780276D02*
X14714068Y-10646943D01*
X14714068Y-10580276D02*
X14704545Y-10589800D01*
X14714068Y-10599324D01*
X14723592Y-10589800D01*
X14714068Y-10580276D01*
X14714068Y-10599324D01*
X14837878Y-10780276D02*
X14818830Y-10770752D01*
X14809307Y-10751705D01*
X14809307Y-10580276D01*
X14942640Y-10780276D02*
X14923592Y-10770752D01*
X14914068Y-10751705D01*
X14914068Y-10580276D01*
X15171211Y-10780276D02*
X15171211Y-10580276D01*
X15237878Y-10723133D01*
X15304545Y-10580276D01*
X15304545Y-10780276D01*
X15485497Y-10780276D02*
X15485497Y-10675514D01*
X15475973Y-10656467D01*
X15456926Y-10646943D01*
X15418830Y-10646943D01*
X15399783Y-10656467D01*
X15485497Y-10770752D02*
X15466449Y-10780276D01*
X15418830Y-10780276D01*
X15399783Y-10770752D01*
X15390259Y-10751705D01*
X15390259Y-10732657D01*
X15399783Y-10713610D01*
X15418830Y-10704086D01*
X15466449Y-10704086D01*
X15485497Y-10694562D01*
X15580735Y-10646943D02*
X15580735Y-10846943D01*
X15580735Y-10656467D02*
X15599783Y-10646943D01*
X15637878Y-10646943D01*
X15656926Y-10656467D01*
X15666449Y-10665990D01*
X15675973Y-10685038D01*
X15675973Y-10742181D01*
X15666449Y-10761229D01*
X15656926Y-10770752D01*
X15637878Y-10780276D01*
X15599783Y-10780276D01*
X15580735Y-10770752D01*
X15761688Y-10761229D02*
X15771211Y-10770752D01*
X15761688Y-10780276D01*
X15752164Y-10770752D01*
X15761688Y-10761229D01*
X15761688Y-10780276D01*
X15761688Y-10656467D02*
X15771211Y-10665990D01*
X15761688Y-10675514D01*
X15752164Y-10665990D01*
X15761688Y-10656467D01*
X15761688Y-10675514D01*
M02*
