M48
; DRILL file {KiCad (6.0.5)} date Mon Nov 13 21:58:47 2023
; FORMAT={-:-/ absolute / metric / decimal}
; #@! TF.CreationDate,2023-11-13T21:58:47+01:00
; #@! TF.GenerationSoftware,Kicad,Pcbnew,(6.0.5)
; #@! TF.FileFunction,Plated,1,2,PTH
FMAT,2
METRIC
; #@! TA.AperFunction,Plated,PTH,ViaDrill
T1C0.400
; #@! TA.AperFunction,Plated,PTH,ComponentDrill
T2C0.800
; #@! TA.AperFunction,Plated,PTH,ComponentDrill
T3C1.000
%
G90
G05
T1
X144.74Y-86.589
X145.83Y-91.096
X145.938Y-84.113
X147.427Y-85.775
X149.114Y-98.935
X149.38Y-94.109
X152.207Y-101.676
X153.344Y-79.22
X154.236Y-83.515
X154.536Y-77.862
X154.921Y-74.974
T2
X142.951Y-74.981
X142.951Y-77.521
X142.951Y-80.061
X142.951Y-82.601
X142.951Y-85.141
X142.951Y-87.681
X142.951Y-90.221
X142.951Y-92.761
X142.951Y-95.301
X142.951Y-97.841
X142.951Y-100.381
X142.951Y-102.921
X150.571Y-74.981
X150.571Y-77.521
X150.571Y-80.061
X150.571Y-82.601
X150.571Y-85.141
X150.571Y-87.681
X150.571Y-90.221
X150.571Y-92.761
X150.571Y-95.301
X150.571Y-97.841
X150.571Y-100.381
X150.571Y-102.921
X153.67Y-85.09
X153.67Y-87.63
X153.67Y-90.17
X153.67Y-92.71
X153.67Y-95.25
X153.67Y-97.79
X153.67Y-100.33
X153.67Y-102.87
X161.29Y-85.09
X161.29Y-87.63
X161.29Y-90.17
X161.29Y-92.71
X161.29Y-95.25
X161.29Y-97.79
X161.29Y-100.33
X161.29Y-102.87
T3
X143.18Y-70.383
X145.72Y-70.383
X148.26Y-70.383
X150.8Y-70.383
X158.389Y-74.026
X158.389Y-76.566
X158.389Y-79.106
X158.389Y-81.646
X158.399Y-70.383
X160.929Y-74.026
X160.929Y-76.566
X160.929Y-79.106
X160.929Y-81.646
X160.939Y-70.383
T0
M30
