G04 #@! TF.GenerationSoftware,KiCad,Pcbnew,(6.0.5)*
G04 #@! TF.CreationDate,2023-10-24T21:46:41+02:00*
G04 #@! TF.ProjectId,c128-u3-gal,63313238-2d75-4332-9d67-616c2e6b6963,1*
G04 #@! TF.SameCoordinates,Original*
G04 #@! TF.FileFunction,Copper,L1,Top*
G04 #@! TF.FilePolarity,Positive*
%FSLAX46Y46*%
G04 Gerber Fmt 4.6, Leading zero omitted, Abs format (unit mm)*
G04 Created by KiCad (PCBNEW (6.0.5)) date 2023-10-24 21:46:41*
%MOMM*%
%LPD*%
G01*
G04 APERTURE LIST*
G04 #@! TA.AperFunction,ComponentPad*
%ADD10O,1.700000X1.700000*%
G04 #@! TD*
G04 #@! TA.AperFunction,ComponentPad*
%ADD11R,1.700000X1.700000*%
G04 #@! TD*
G04 #@! TA.AperFunction,ComponentPad*
%ADD12R,2.400000X1.600000*%
G04 #@! TD*
G04 #@! TA.AperFunction,ComponentPad*
%ADD13O,2.400000X1.600000*%
G04 #@! TD*
G04 #@! TA.AperFunction,ViaPad*
%ADD14C,0.800000*%
G04 #@! TD*
G04 #@! TA.AperFunction,Conductor*
%ADD15C,0.250000*%
G04 #@! TD*
G04 APERTURE END LIST*
D10*
X143179800Y-70383400D03*
X145719800Y-70383400D03*
X148259800Y-70383400D03*
D11*
X150799800Y-70383400D03*
D12*
X161290000Y-102870000D03*
D13*
X161290000Y-100330000D03*
X161290000Y-97790000D03*
X161290000Y-95250000D03*
X161290000Y-92710000D03*
X161290000Y-90170000D03*
X161290000Y-87630000D03*
X161290000Y-85090000D03*
X153670000Y-85090000D03*
X153670000Y-87630000D03*
X153670000Y-90170000D03*
X153670000Y-92710000D03*
X153670000Y-95250000D03*
X153670000Y-97790000D03*
X153670000Y-100330000D03*
X153670000Y-102870000D03*
X142951200Y-102920800D03*
X142951200Y-100380800D03*
X142951200Y-97840800D03*
X142951200Y-95300800D03*
X142951200Y-92760800D03*
X142951200Y-90220800D03*
X142951200Y-87680800D03*
X142951200Y-85140800D03*
X142951200Y-82600800D03*
X142951200Y-80060800D03*
X142951200Y-77520800D03*
X142951200Y-74980800D03*
X150571200Y-74980800D03*
X150571200Y-77520800D03*
X150571200Y-80060800D03*
X150571200Y-82600800D03*
X150571200Y-85140800D03*
X150571200Y-87680800D03*
X150571200Y-90220800D03*
X150571200Y-92760800D03*
X150571200Y-95300800D03*
X150571200Y-97840800D03*
X150571200Y-100380800D03*
D12*
X150571200Y-102920800D03*
D10*
X158399400Y-70383400D03*
D11*
X160939400Y-70383400D03*
X158389400Y-74025600D03*
D10*
X160929400Y-74025600D03*
X158389400Y-76565600D03*
X160929400Y-76565600D03*
X158389400Y-79105600D03*
X160929400Y-79105600D03*
X158389400Y-81645600D03*
X160929400Y-81645600D03*
D14*
X145830300Y-91095900D03*
X144739800Y-86589000D03*
X147426900Y-85775500D03*
X145937900Y-84113100D03*
X153344100Y-79220100D03*
X154535900Y-77862100D03*
X154921000Y-74974500D03*
X149114200Y-98935100D03*
X149380000Y-94109100D03*
X154236400Y-83514900D03*
X152207300Y-101676300D03*
D15*
X158399400Y-70383400D02*
X158399400Y-71560300D01*
X150571200Y-90220800D02*
X152098100Y-90220800D01*
X155717200Y-74242500D02*
X158399400Y-71560300D01*
X155717200Y-80521100D02*
X155717200Y-74242500D01*
X152098100Y-84140200D02*
X155717200Y-80521100D01*
X152098100Y-90220800D02*
X152098100Y-84140200D01*
X143179800Y-70383400D02*
X143179800Y-71560300D01*
X142951200Y-100380800D02*
X144478100Y-100380800D01*
X144739800Y-73120300D02*
X144739800Y-86589000D01*
X143179800Y-71560300D02*
X144739800Y-73120300D01*
X145830300Y-99028600D02*
X145830300Y-91095900D01*
X144478100Y-100380800D02*
X145830300Y-99028600D01*
X147426900Y-88458400D02*
X147426900Y-85775500D01*
X144478100Y-91407200D02*
X147426900Y-88458400D01*
X144478100Y-97840800D02*
X144478100Y-91407200D01*
X145719800Y-70383400D02*
X145719800Y-71560300D01*
X145937900Y-71778400D02*
X145937900Y-84113100D01*
X145719800Y-71560300D02*
X145937900Y-71778400D01*
X142951200Y-97840800D02*
X144478100Y-97840800D01*
X150799800Y-70383400D02*
X150799800Y-71560300D01*
X142951200Y-92214500D02*
X142951200Y-92760800D01*
X146063000Y-89102700D02*
X142951200Y-92214500D01*
X146063000Y-85659000D02*
X146063000Y-89102700D01*
X148718700Y-83003300D02*
X146063000Y-85659000D01*
X148718700Y-73641400D02*
X148718700Y-83003300D01*
X150799800Y-71560300D02*
X148718700Y-73641400D01*
X142951200Y-87680800D02*
X144478100Y-87680800D01*
X144676800Y-87680800D02*
X144478100Y-87680800D01*
X145470000Y-86887600D02*
X144676800Y-87680800D01*
X145470000Y-85612800D02*
X145470000Y-86887600D01*
X148259800Y-82823000D02*
X145470000Y-85612800D01*
X148259800Y-70383400D02*
X148259800Y-82823000D01*
X150571200Y-80060800D02*
X152098100Y-80060800D01*
X152938800Y-79220100D02*
X153344100Y-79220100D01*
X152098100Y-80060800D02*
X152938800Y-79220100D01*
X154535900Y-80163000D02*
X154535900Y-77862100D01*
X152098100Y-82600800D02*
X154535900Y-80163000D01*
X150571200Y-82600800D02*
X152098100Y-82600800D01*
X150571200Y-84802700D02*
X150571200Y-85140800D01*
X155265300Y-80108600D02*
X150571200Y-84802700D01*
X155265300Y-75318800D02*
X155265300Y-80108600D01*
X154921000Y-74974500D02*
X155265300Y-75318800D01*
X152143100Y-99863000D02*
X152143100Y-100330000D01*
X151390900Y-99110800D02*
X152143100Y-99863000D01*
X149289900Y-99110800D02*
X151390900Y-99110800D01*
X149114200Y-98935100D02*
X149289900Y-99110800D01*
X153670000Y-100330000D02*
X152143100Y-100330000D01*
X153670000Y-95250000D02*
X152143100Y-95250000D01*
X152143100Y-94872500D02*
X152143100Y-95250000D01*
X151379700Y-94109100D02*
X152143100Y-94872500D01*
X149380000Y-94109100D02*
X151379700Y-94109100D01*
X160929400Y-79105600D02*
X160929400Y-76565600D01*
X161290000Y-85090000D02*
X159763100Y-85090000D01*
X160929400Y-79105600D02*
X160929400Y-81645600D01*
X160929400Y-81645600D02*
X160929400Y-82822500D01*
X160981700Y-82874800D02*
X160929400Y-82822500D01*
X160981700Y-83963900D02*
X160981700Y-82874800D01*
X160555900Y-84389700D02*
X160981700Y-83963900D01*
X160456600Y-84389700D02*
X160555900Y-84389700D01*
X160166400Y-84679900D02*
X160456600Y-84389700D01*
X159836200Y-84679900D02*
X160166400Y-84679900D01*
X159763100Y-84753000D02*
X159836200Y-84679900D01*
X159763100Y-85090000D02*
X159763100Y-84753000D01*
X155648000Y-83514900D02*
X159763100Y-87630000D01*
X154236400Y-83514900D02*
X155648000Y-83514900D01*
X161290000Y-87630000D02*
X159763100Y-87630000D01*
X150571200Y-102920800D02*
X152098100Y-102920800D01*
X152098100Y-101785500D02*
X152098100Y-102920800D01*
X152207300Y-101676300D02*
X152098100Y-101785500D01*
G04 #@! TA.AperFunction,Conductor*
G36*
X159520668Y-71287992D02*
G01*
X159577430Y-71330638D01*
X159594412Y-71361741D01*
X159638785Y-71480105D01*
X159726139Y-71596661D01*
X159842695Y-71684015D01*
X159979084Y-71735145D01*
X160041266Y-71741900D01*
X161837534Y-71741900D01*
X161899716Y-71735145D01*
X162036105Y-71684015D01*
X162152661Y-71596661D01*
X162154470Y-71599075D01*
X162203517Y-71572292D01*
X162274332Y-71577357D01*
X162331168Y-71619904D01*
X162355979Y-71686424D01*
X162356300Y-71695413D01*
X162356300Y-73304265D01*
X162336298Y-73372386D01*
X162282642Y-73418879D01*
X162212368Y-73428983D01*
X162147788Y-73399489D01*
X162124508Y-73372705D01*
X162011827Y-73198526D01*
X162005536Y-73190357D01*
X161862206Y-73032840D01*
X161854673Y-73025815D01*
X161687539Y-72893822D01*
X161678952Y-72888117D01*
X161492517Y-72785199D01*
X161483105Y-72780969D01*
X161282359Y-72709880D01*
X161272388Y-72707246D01*
X161201237Y-72694572D01*
X161187940Y-72696032D01*
X161183400Y-72710589D01*
X161183400Y-82964117D01*
X161187464Y-82977959D01*
X161200878Y-82979993D01*
X161207584Y-82979134D01*
X161217662Y-82976992D01*
X161421655Y-82915791D01*
X161431242Y-82912033D01*
X161622495Y-82818339D01*
X161631345Y-82813064D01*
X161804728Y-82689392D01*
X161812600Y-82682739D01*
X161963452Y-82532412D01*
X161970130Y-82524565D01*
X162094403Y-82351620D01*
X162099713Y-82342783D01*
X162117343Y-82307112D01*
X162165457Y-82254905D01*
X162234158Y-82236998D01*
X162301634Y-82259077D01*
X162346463Y-82314131D01*
X162356300Y-82362939D01*
X162356300Y-83759702D01*
X162336298Y-83827823D01*
X162282642Y-83874316D01*
X162212368Y-83884420D01*
X162177050Y-83873897D01*
X162144053Y-83858510D01*
X162133761Y-83854764D01*
X161923312Y-83798375D01*
X161912519Y-83796472D01*
X161749830Y-83782238D01*
X161744365Y-83782000D01*
X161562115Y-83782000D01*
X161546876Y-83786475D01*
X161545671Y-83787865D01*
X161544000Y-83795548D01*
X161544000Y-85218000D01*
X161523998Y-85286121D01*
X161470342Y-85332614D01*
X161418000Y-85344000D01*
X159622033Y-85344000D01*
X159608502Y-85347973D01*
X159607273Y-85356522D01*
X159654764Y-85533761D01*
X159658510Y-85544053D01*
X159750586Y-85741511D01*
X159756069Y-85751007D01*
X159881028Y-85929467D01*
X159888084Y-85937875D01*
X160042125Y-86091916D01*
X160050533Y-86098972D01*
X160228993Y-86223931D01*
X160238489Y-86229414D01*
X160273049Y-86245529D01*
X160326334Y-86292446D01*
X160345795Y-86360723D01*
X160325253Y-86428683D01*
X160273049Y-86473919D01*
X160238238Y-86490151D01*
X160238233Y-86490154D01*
X160233251Y-86492477D01*
X160223700Y-86499165D01*
X160050211Y-86620643D01*
X160050208Y-86620645D01*
X160045700Y-86623802D01*
X159938346Y-86731156D01*
X159876038Y-86765179D01*
X159805222Y-86760115D01*
X159760159Y-86731154D01*
X157847508Y-84818503D01*
X159608606Y-84818503D01*
X159608942Y-84832599D01*
X159616884Y-84836000D01*
X161017885Y-84836000D01*
X161033124Y-84831525D01*
X161034329Y-84830135D01*
X161036000Y-84822452D01*
X161036000Y-83800115D01*
X161031525Y-83784876D01*
X161030135Y-83783671D01*
X161022452Y-83782000D01*
X160835635Y-83782000D01*
X160830170Y-83782238D01*
X160667481Y-83796472D01*
X160656688Y-83798375D01*
X160446239Y-83854764D01*
X160435947Y-83858510D01*
X160238489Y-83950586D01*
X160228993Y-83956069D01*
X160050533Y-84081028D01*
X160042125Y-84088084D01*
X159888084Y-84242125D01*
X159881028Y-84250533D01*
X159756069Y-84428993D01*
X159750586Y-84438489D01*
X159658510Y-84635947D01*
X159654764Y-84646239D01*
X159608606Y-84818503D01*
X157847508Y-84818503D01*
X156151652Y-83122647D01*
X156144112Y-83114361D01*
X156140000Y-83107882D01*
X156090348Y-83061256D01*
X156087507Y-83058502D01*
X156067770Y-83038765D01*
X156064573Y-83036285D01*
X156055551Y-83028580D01*
X156023321Y-82998314D01*
X156016375Y-82994495D01*
X156016372Y-82994493D01*
X156005566Y-82988552D01*
X155989047Y-82977701D01*
X155988133Y-82976992D01*
X155973041Y-82965286D01*
X155965772Y-82962141D01*
X155965768Y-82962138D01*
X155932463Y-82947726D01*
X155921813Y-82942509D01*
X155883060Y-82921205D01*
X155863437Y-82916167D01*
X155844734Y-82909763D01*
X155833420Y-82904867D01*
X155833419Y-82904867D01*
X155826145Y-82901719D01*
X155818322Y-82900480D01*
X155818312Y-82900477D01*
X155782476Y-82894801D01*
X155770856Y-82892395D01*
X155735711Y-82883372D01*
X155735710Y-82883372D01*
X155728030Y-82881400D01*
X155707776Y-82881400D01*
X155688065Y-82879849D01*
X155675886Y-82877920D01*
X155668057Y-82876680D01*
X155660165Y-82877426D01*
X155624039Y-82880841D01*
X155612181Y-82881400D01*
X154944600Y-82881400D01*
X154876479Y-82861398D01*
X154857253Y-82845057D01*
X154856980Y-82845360D01*
X154852068Y-82840937D01*
X154847653Y-82836034D01*
X154693152Y-82723782D01*
X154687117Y-82721095D01*
X154665002Y-82711248D01*
X154610907Y-82665268D01*
X154590258Y-82597341D01*
X154609611Y-82529033D01*
X154627157Y-82507047D01*
X156109447Y-81024757D01*
X156117737Y-81017213D01*
X156124218Y-81013100D01*
X156170859Y-80963432D01*
X156173613Y-80960591D01*
X156193334Y-80940870D01*
X156195812Y-80937675D01*
X156203518Y-80928653D01*
X156228358Y-80902201D01*
X156233786Y-80896421D01*
X156243546Y-80878668D01*
X156254399Y-80862145D01*
X156261953Y-80852406D01*
X156266813Y-80846141D01*
X156284376Y-80805557D01*
X156289583Y-80794927D01*
X156310895Y-80756160D01*
X156312866Y-80748483D01*
X156312868Y-80748478D01*
X156315932Y-80736542D01*
X156322338Y-80717830D01*
X156327233Y-80706519D01*
X156330381Y-80699245D01*
X156331621Y-80691417D01*
X156331623Y-80691410D01*
X156337299Y-80655576D01*
X156339705Y-80643956D01*
X156348728Y-80608811D01*
X156348728Y-80608810D01*
X156350700Y-80601130D01*
X156350700Y-80580876D01*
X156352251Y-80561165D01*
X156354180Y-80548986D01*
X156355420Y-80541157D01*
X156351259Y-80497138D01*
X156350700Y-80485281D01*
X156350700Y-74557094D01*
X156370702Y-74488973D01*
X156387605Y-74467999D01*
X156815805Y-74039799D01*
X156878117Y-74005773D01*
X156948932Y-74010838D01*
X157005768Y-74053385D01*
X157030579Y-74119905D01*
X157030900Y-74128894D01*
X157030900Y-74923734D01*
X157037655Y-74985916D01*
X157088785Y-75122305D01*
X157176139Y-75238861D01*
X157292695Y-75326215D01*
X157301104Y-75329367D01*
X157301105Y-75329368D01*
X157409851Y-75370135D01*
X157466616Y-75412776D01*
X157491316Y-75479338D01*
X157476109Y-75548687D01*
X157456716Y-75575168D01*
X157330029Y-75707738D01*
X157204143Y-75892280D01*
X157110088Y-76094905D01*
X157050389Y-76310170D01*
X157026651Y-76532295D01*
X157039510Y-76755315D01*
X157040647Y-76760361D01*
X157040648Y-76760367D01*
X157055800Y-76827600D01*
X157088622Y-76973239D01*
X157172666Y-77180216D01*
X157175365Y-77184620D01*
X157235615Y-77282939D01*
X157289387Y-77370688D01*
X157435650Y-77539538D01*
X157607526Y-77682232D01*
X157677995Y-77723411D01*
X157680845Y-77725076D01*
X157729569Y-77776714D01*
X157742640Y-77846497D01*
X157715909Y-77912269D01*
X157675455Y-77945627D01*
X157663007Y-77952107D01*
X157658874Y-77955210D01*
X157658871Y-77955212D01*
X157521563Y-78058306D01*
X157484365Y-78086235D01*
X157330029Y-78247738D01*
X157327115Y-78252010D01*
X157327114Y-78252011D01*
X157286465Y-78311600D01*
X157204143Y-78432280D01*
X157110088Y-78634905D01*
X157050389Y-78850170D01*
X157026651Y-79072295D01*
X157026948Y-79077448D01*
X157026948Y-79077451D01*
X157032411Y-79172190D01*
X157039510Y-79295315D01*
X157040647Y-79300361D01*
X157040648Y-79300367D01*
X157061675Y-79393669D01*
X157088622Y-79513239D01*
X157172666Y-79720216D01*
X157175365Y-79724620D01*
X157235615Y-79822939D01*
X157289387Y-79910688D01*
X157435650Y-80079538D01*
X157607526Y-80222232D01*
X157677995Y-80263411D01*
X157680845Y-80265076D01*
X157729569Y-80316714D01*
X157742640Y-80386497D01*
X157715909Y-80452269D01*
X157675455Y-80485627D01*
X157663007Y-80492107D01*
X157658874Y-80495210D01*
X157658871Y-80495212D01*
X157492200Y-80620352D01*
X157484365Y-80626235D01*
X157330029Y-80787738D01*
X157327115Y-80792010D01*
X157327114Y-80792011D01*
X157290189Y-80846141D01*
X157204143Y-80972280D01*
X157110088Y-81174905D01*
X157050389Y-81390170D01*
X157026651Y-81612295D01*
X157026948Y-81617448D01*
X157026948Y-81617451D01*
X157032411Y-81712190D01*
X157039510Y-81835315D01*
X157040647Y-81840361D01*
X157040648Y-81840367D01*
X157061675Y-81933669D01*
X157088622Y-82053239D01*
X157172666Y-82260216D01*
X157175365Y-82264620D01*
X157235615Y-82362939D01*
X157289387Y-82450688D01*
X157435650Y-82619538D01*
X157607526Y-82762232D01*
X157800400Y-82874938D01*
X157805225Y-82876780D01*
X157805226Y-82876781D01*
X157815858Y-82880841D01*
X158009092Y-82954630D01*
X158014160Y-82955661D01*
X158014163Y-82955662D01*
X158085335Y-82970142D01*
X158227997Y-82999167D01*
X158233172Y-82999357D01*
X158233174Y-82999357D01*
X158446073Y-83007164D01*
X158446077Y-83007164D01*
X158451237Y-83007353D01*
X158456357Y-83006697D01*
X158456359Y-83006697D01*
X158667688Y-82979625D01*
X158667689Y-82979625D01*
X158672816Y-82978968D01*
X158677766Y-82977483D01*
X158881829Y-82916261D01*
X158881834Y-82916259D01*
X158886784Y-82914774D01*
X159087394Y-82816496D01*
X159269260Y-82686773D01*
X159427496Y-82529089D01*
X159486994Y-82446289D01*
X159557853Y-82347677D01*
X159559040Y-82348530D01*
X159606360Y-82304962D01*
X159676297Y-82292745D01*
X159741738Y-82320278D01*
X159769566Y-82352111D01*
X159827094Y-82445988D01*
X159833177Y-82454299D01*
X159972613Y-82615267D01*
X159979980Y-82622483D01*
X160143834Y-82758516D01*
X160152281Y-82764431D01*
X160336156Y-82871879D01*
X160345442Y-82876329D01*
X160544401Y-82952303D01*
X160554299Y-82955179D01*
X160657650Y-82976206D01*
X160671699Y-82975010D01*
X160675400Y-82964665D01*
X160675400Y-72708702D01*
X160671482Y-72695358D01*
X160657206Y-72693371D01*
X160618724Y-72699260D01*
X160608688Y-72701651D01*
X160406268Y-72767812D01*
X160396759Y-72771809D01*
X160207863Y-72870142D01*
X160199138Y-72875636D01*
X160028833Y-73003505D01*
X160021126Y-73010348D01*
X159943878Y-73091184D01*
X159882354Y-73126614D01*
X159811442Y-73123157D01*
X159753655Y-73081911D01*
X159734802Y-73048363D01*
X159693167Y-72937303D01*
X159690015Y-72928895D01*
X159602661Y-72812339D01*
X159486105Y-72724985D01*
X159349716Y-72673855D01*
X159287534Y-72667100D01*
X158492694Y-72667100D01*
X158424573Y-72647098D01*
X158378080Y-72593442D01*
X158367976Y-72523168D01*
X158397470Y-72458588D01*
X158403599Y-72452005D01*
X158791647Y-72063957D01*
X158799937Y-72056413D01*
X158806418Y-72052300D01*
X158853059Y-72002632D01*
X158855813Y-71999791D01*
X158875535Y-71980069D01*
X158878012Y-71976876D01*
X158885717Y-71967855D01*
X158900923Y-71951662D01*
X158915986Y-71935621D01*
X158919807Y-71928671D01*
X158925746Y-71917868D01*
X158936602Y-71901341D01*
X158944157Y-71891602D01*
X158944158Y-71891600D01*
X158949014Y-71885340D01*
X158966574Y-71844760D01*
X158971791Y-71834112D01*
X158989275Y-71802309D01*
X158989276Y-71802307D01*
X158993095Y-71795360D01*
X158998133Y-71775737D01*
X159004537Y-71757034D01*
X159009433Y-71745720D01*
X159009433Y-71745719D01*
X159012581Y-71738445D01*
X159013820Y-71730622D01*
X159013823Y-71730612D01*
X159019499Y-71694776D01*
X159021905Y-71683156D01*
X159032900Y-71640331D01*
X159034681Y-71640788D01*
X159059061Y-71584877D01*
X159091175Y-71557509D01*
X159092741Y-71556576D01*
X159097394Y-71554296D01*
X159279260Y-71424573D01*
X159387491Y-71316719D01*
X159449862Y-71282804D01*
X159520668Y-71287992D01*
G37*
G04 #@! TD.AperFunction*
G04 #@! TA.AperFunction,Conductor*
G36*
X162298421Y-67914702D02*
G01*
X162344914Y-67968358D01*
X162356300Y-68020700D01*
X162356300Y-69071387D01*
X162336298Y-69139508D01*
X162282642Y-69186001D01*
X162212368Y-69196105D01*
X162153388Y-69169169D01*
X162152661Y-69170139D01*
X162148212Y-69166805D01*
X162036105Y-69082785D01*
X161899716Y-69031655D01*
X161837534Y-69024900D01*
X160041266Y-69024900D01*
X159979084Y-69031655D01*
X159842695Y-69082785D01*
X159726139Y-69170139D01*
X159638785Y-69286695D01*
X159635633Y-69295103D01*
X159594319Y-69405307D01*
X159551677Y-69462071D01*
X159485116Y-69486771D01*
X159415767Y-69471563D01*
X159383143Y-69445876D01*
X159332551Y-69390275D01*
X159332542Y-69390266D01*
X159329070Y-69386451D01*
X159325019Y-69383252D01*
X159325015Y-69383248D01*
X159157814Y-69251200D01*
X159157810Y-69251198D01*
X159153759Y-69247998D01*
X158958189Y-69140038D01*
X158953320Y-69138314D01*
X158953316Y-69138312D01*
X158752487Y-69067195D01*
X158752483Y-69067194D01*
X158747612Y-69065469D01*
X158742519Y-69064562D01*
X158742516Y-69064561D01*
X158532773Y-69027200D01*
X158532767Y-69027199D01*
X158527684Y-69026294D01*
X158453852Y-69025392D01*
X158309481Y-69023628D01*
X158309479Y-69023628D01*
X158304311Y-69023565D01*
X158083491Y-69057355D01*
X157871156Y-69126757D01*
X157840843Y-69142537D01*
X157757350Y-69186001D01*
X157673007Y-69229907D01*
X157668874Y-69233010D01*
X157668871Y-69233012D01*
X157498500Y-69360930D01*
X157494365Y-69364035D01*
X157454925Y-69405307D01*
X157400680Y-69462071D01*
X157340029Y-69525538D01*
X157214143Y-69710080D01*
X157120088Y-69912705D01*
X157060389Y-70127970D01*
X157036651Y-70350095D01*
X157049510Y-70573115D01*
X157050647Y-70578161D01*
X157050648Y-70578167D01*
X157074704Y-70684908D01*
X157098622Y-70791039D01*
X157182666Y-70998016D01*
X157220085Y-71059078D01*
X157296691Y-71184088D01*
X157299387Y-71188488D01*
X157445650Y-71357338D01*
X157449625Y-71360638D01*
X157449628Y-71360641D01*
X157481798Y-71387349D01*
X157521433Y-71446252D01*
X157522931Y-71517233D01*
X157490408Y-71573388D01*
X156396695Y-72667100D01*
X155324947Y-73738848D01*
X155316661Y-73746388D01*
X155310182Y-73750500D01*
X155304757Y-73756277D01*
X155263557Y-73800151D01*
X155260802Y-73802993D01*
X155241065Y-73822730D01*
X155238585Y-73825927D01*
X155230882Y-73834947D01*
X155200614Y-73867179D01*
X155196795Y-73874125D01*
X155196793Y-73874128D01*
X155190852Y-73884934D01*
X155180001Y-73901453D01*
X155167586Y-73917459D01*
X155164441Y-73924728D01*
X155164438Y-73924732D01*
X155150026Y-73958037D01*
X155144803Y-73968698D01*
X155127192Y-74000732D01*
X155076847Y-74050791D01*
X155016487Y-74062738D01*
X155016487Y-74066000D01*
X154825513Y-74066000D01*
X154819061Y-74067372D01*
X154819056Y-74067372D01*
X154741084Y-74083946D01*
X154638712Y-74105706D01*
X154632682Y-74108391D01*
X154632681Y-74108391D01*
X154470278Y-74180697D01*
X154470276Y-74180698D01*
X154464248Y-74183382D01*
X154309747Y-74295634D01*
X154181960Y-74437556D01*
X154086473Y-74602944D01*
X154027458Y-74784572D01*
X154007496Y-74974500D01*
X154008186Y-74981065D01*
X154024735Y-75138516D01*
X154027458Y-75164428D01*
X154086473Y-75346056D01*
X154089776Y-75351778D01*
X154089777Y-75351779D01*
X154104538Y-75377345D01*
X154181960Y-75511444D01*
X154309747Y-75653366D01*
X154464248Y-75765618D01*
X154470276Y-75768302D01*
X154470278Y-75768303D01*
X154557049Y-75806936D01*
X154611145Y-75852917D01*
X154631800Y-75922043D01*
X154631800Y-76827600D01*
X154611798Y-76895721D01*
X154558142Y-76942214D01*
X154505800Y-76953600D01*
X154440413Y-76953600D01*
X154433961Y-76954972D01*
X154433956Y-76954972D01*
X154348019Y-76973239D01*
X154253612Y-76993306D01*
X154247582Y-76995991D01*
X154247581Y-76995991D01*
X154085178Y-77068297D01*
X154085176Y-77068298D01*
X154079148Y-77070982D01*
X153924647Y-77183234D01*
X153920226Y-77188144D01*
X153920225Y-77188145D01*
X153821138Y-77298193D01*
X153796860Y-77325156D01*
X153793559Y-77330874D01*
X153723389Y-77452412D01*
X153701373Y-77490544D01*
X153642358Y-77672172D01*
X153641668Y-77678733D01*
X153641668Y-77678735D01*
X153629455Y-77794938D01*
X153622396Y-77862100D01*
X153623086Y-77868665D01*
X153627672Y-77912294D01*
X153642358Y-78052028D01*
X153644398Y-78058306D01*
X153680559Y-78169598D01*
X153682587Y-78240565D01*
X153645924Y-78301363D01*
X153582212Y-78332689D01*
X153534529Y-78331780D01*
X153446053Y-78312973D01*
X153446040Y-78312972D01*
X153439587Y-78311600D01*
X153248613Y-78311600D01*
X153242161Y-78312972D01*
X153242156Y-78312972D01*
X153155212Y-78331453D01*
X153061812Y-78351306D01*
X153055782Y-78353991D01*
X153055781Y-78353991D01*
X152893378Y-78426297D01*
X152893376Y-78426298D01*
X152887348Y-78428982D01*
X152882007Y-78432862D01*
X152882006Y-78432863D01*
X152842674Y-78461440D01*
X152732847Y-78541234D01*
X152625326Y-78660649D01*
X152623372Y-78662819D01*
X152603799Y-78680444D01*
X152595412Y-78686537D01*
X152585501Y-78693047D01*
X152547437Y-78715558D01*
X152533113Y-78729882D01*
X152518081Y-78742721D01*
X152501693Y-78754628D01*
X152473512Y-78788693D01*
X152465533Y-78797462D01*
X152101039Y-79161956D01*
X152038730Y-79195979D01*
X151967915Y-79190915D01*
X151922852Y-79161954D01*
X151815500Y-79054602D01*
X151810992Y-79051445D01*
X151810989Y-79051443D01*
X151637500Y-78929965D01*
X151627949Y-78923277D01*
X151622967Y-78920954D01*
X151622962Y-78920951D01*
X151588743Y-78904995D01*
X151535458Y-78858078D01*
X151515997Y-78789801D01*
X151536539Y-78721841D01*
X151588743Y-78676605D01*
X151622962Y-78660649D01*
X151622967Y-78660646D01*
X151627949Y-78658323D01*
X151732811Y-78584898D01*
X151810989Y-78530157D01*
X151810992Y-78530155D01*
X151815500Y-78526998D01*
X151977398Y-78365100D01*
X151988018Y-78349934D01*
X152062193Y-78244001D01*
X152108723Y-78177549D01*
X152111046Y-78172567D01*
X152111049Y-78172562D01*
X152203161Y-77975025D01*
X152203161Y-77975024D01*
X152205484Y-77970043D01*
X152209345Y-77955636D01*
X152263319Y-77754202D01*
X152263319Y-77754200D01*
X152264743Y-77748887D01*
X152284698Y-77520800D01*
X152264743Y-77292713D01*
X152246589Y-77224962D01*
X152206907Y-77076867D01*
X152206906Y-77076865D01*
X152205484Y-77071557D01*
X152203161Y-77066575D01*
X152111049Y-76869038D01*
X152111046Y-76869033D01*
X152108723Y-76864051D01*
X151977398Y-76676500D01*
X151815500Y-76514602D01*
X151810992Y-76511445D01*
X151810989Y-76511443D01*
X151637500Y-76389965D01*
X151627949Y-76383277D01*
X151622967Y-76380954D01*
X151622962Y-76380951D01*
X151588151Y-76364719D01*
X151534866Y-76317802D01*
X151515405Y-76249525D01*
X151535947Y-76181565D01*
X151588151Y-76136329D01*
X151622711Y-76120214D01*
X151632207Y-76114731D01*
X151810667Y-75989772D01*
X151819075Y-75982716D01*
X151973116Y-75828675D01*
X151980172Y-75820267D01*
X152105131Y-75641807D01*
X152110614Y-75632311D01*
X152202690Y-75434853D01*
X152206436Y-75424561D01*
X152252594Y-75252297D01*
X152252258Y-75238201D01*
X152244316Y-75234800D01*
X150443200Y-75234800D01*
X150375079Y-75214798D01*
X150328586Y-75161142D01*
X150317200Y-75108800D01*
X150317200Y-74708685D01*
X150825200Y-74708685D01*
X150829675Y-74723924D01*
X150831065Y-74725129D01*
X150838748Y-74726800D01*
X152239167Y-74726800D01*
X152252698Y-74722827D01*
X152253927Y-74714278D01*
X152206436Y-74537039D01*
X152202690Y-74526747D01*
X152110614Y-74329289D01*
X152105131Y-74319793D01*
X151980172Y-74141333D01*
X151973116Y-74132925D01*
X151819075Y-73978884D01*
X151810667Y-73971828D01*
X151632207Y-73846869D01*
X151622711Y-73841386D01*
X151425253Y-73749310D01*
X151414961Y-73745564D01*
X151204512Y-73689175D01*
X151193719Y-73687272D01*
X151031030Y-73673038D01*
X151025565Y-73672800D01*
X150843315Y-73672800D01*
X150828076Y-73677275D01*
X150826871Y-73678665D01*
X150825200Y-73686348D01*
X150825200Y-74708685D01*
X150317200Y-74708685D01*
X150317200Y-73690915D01*
X150312725Y-73675676D01*
X150311335Y-73674471D01*
X150303652Y-73672800D01*
X150116835Y-73672800D01*
X150111370Y-73673038D01*
X149948681Y-73687272D01*
X149937888Y-73689175D01*
X149885227Y-73703285D01*
X149814251Y-73701595D01*
X149755455Y-73661801D01*
X149727507Y-73596536D01*
X149739281Y-73526523D01*
X149763521Y-73492483D01*
X150318702Y-72937303D01*
X151192053Y-72063952D01*
X151200339Y-72056412D01*
X151206818Y-72052300D01*
X151253444Y-72002648D01*
X151256198Y-71999807D01*
X151275935Y-71980070D01*
X151278415Y-71976873D01*
X151286120Y-71967851D01*
X151316386Y-71935621D01*
X151320205Y-71928675D01*
X151320207Y-71928672D01*
X151326148Y-71917866D01*
X151336999Y-71901347D01*
X151337359Y-71900883D01*
X151349414Y-71885341D01*
X151352559Y-71878072D01*
X151352562Y-71878068D01*
X151366974Y-71844763D01*
X151372191Y-71834112D01*
X151386987Y-71807198D01*
X151437332Y-71757141D01*
X151497401Y-71741900D01*
X151697934Y-71741900D01*
X151760116Y-71735145D01*
X151896505Y-71684015D01*
X152013061Y-71596661D01*
X152100415Y-71480105D01*
X152151545Y-71343716D01*
X152158300Y-71281534D01*
X152158300Y-69485266D01*
X152151545Y-69423084D01*
X152100415Y-69286695D01*
X152013061Y-69170139D01*
X151896505Y-69082785D01*
X151760116Y-69031655D01*
X151697934Y-69024900D01*
X149901666Y-69024900D01*
X149839484Y-69031655D01*
X149703095Y-69082785D01*
X149586539Y-69170139D01*
X149499185Y-69286695D01*
X149496033Y-69295103D01*
X149454719Y-69405307D01*
X149412077Y-69462071D01*
X149345516Y-69486771D01*
X149276167Y-69471563D01*
X149243543Y-69445876D01*
X149192951Y-69390275D01*
X149192942Y-69390266D01*
X149189470Y-69386451D01*
X149185419Y-69383252D01*
X149185415Y-69383248D01*
X149018214Y-69251200D01*
X149018210Y-69251198D01*
X149014159Y-69247998D01*
X148818589Y-69140038D01*
X148813720Y-69138314D01*
X148813716Y-69138312D01*
X148612887Y-69067195D01*
X148612883Y-69067194D01*
X148608012Y-69065469D01*
X148602919Y-69064562D01*
X148602916Y-69064561D01*
X148393173Y-69027200D01*
X148393167Y-69027199D01*
X148388084Y-69026294D01*
X148314252Y-69025392D01*
X148169881Y-69023628D01*
X148169879Y-69023628D01*
X148164711Y-69023565D01*
X147943891Y-69057355D01*
X147731556Y-69126757D01*
X147701243Y-69142537D01*
X147617750Y-69186001D01*
X147533407Y-69229907D01*
X147529274Y-69233010D01*
X147529271Y-69233012D01*
X147358900Y-69360930D01*
X147354765Y-69364035D01*
X147315325Y-69405307D01*
X147261080Y-69462071D01*
X147200429Y-69525538D01*
X147093001Y-69683021D01*
X147038093Y-69728021D01*
X146967568Y-69736192D01*
X146903821Y-69704938D01*
X146883124Y-69680454D01*
X146802622Y-69556017D01*
X146802620Y-69556014D01*
X146799814Y-69551677D01*
X146649470Y-69386451D01*
X146645419Y-69383252D01*
X146645415Y-69383248D01*
X146478214Y-69251200D01*
X146478210Y-69251198D01*
X146474159Y-69247998D01*
X146278589Y-69140038D01*
X146273720Y-69138314D01*
X146273716Y-69138312D01*
X146072887Y-69067195D01*
X146072883Y-69067194D01*
X146068012Y-69065469D01*
X146062919Y-69064562D01*
X146062916Y-69064561D01*
X145853173Y-69027200D01*
X145853167Y-69027199D01*
X145848084Y-69026294D01*
X145774252Y-69025392D01*
X145629881Y-69023628D01*
X145629879Y-69023628D01*
X145624711Y-69023565D01*
X145403891Y-69057355D01*
X145191556Y-69126757D01*
X145161243Y-69142537D01*
X145077750Y-69186001D01*
X144993407Y-69229907D01*
X144989274Y-69233010D01*
X144989271Y-69233012D01*
X144818900Y-69360930D01*
X144814765Y-69364035D01*
X144775325Y-69405307D01*
X144721080Y-69462071D01*
X144660429Y-69525538D01*
X144553001Y-69683021D01*
X144498093Y-69728021D01*
X144427568Y-69736192D01*
X144363821Y-69704938D01*
X144343124Y-69680454D01*
X144262622Y-69556017D01*
X144262620Y-69556014D01*
X144259814Y-69551677D01*
X144109470Y-69386451D01*
X144105419Y-69383252D01*
X144105415Y-69383248D01*
X143938214Y-69251200D01*
X143938210Y-69251198D01*
X143934159Y-69247998D01*
X143738589Y-69140038D01*
X143733720Y-69138314D01*
X143733716Y-69138312D01*
X143532887Y-69067195D01*
X143532883Y-69067194D01*
X143528012Y-69065469D01*
X143522919Y-69064562D01*
X143522916Y-69064561D01*
X143313173Y-69027200D01*
X143313167Y-69027199D01*
X143308084Y-69026294D01*
X143234252Y-69025392D01*
X143089881Y-69023628D01*
X143089879Y-69023628D01*
X143084711Y-69023565D01*
X142863891Y-69057355D01*
X142651556Y-69126757D01*
X142621243Y-69142537D01*
X142537750Y-69186001D01*
X142453407Y-69229907D01*
X142449274Y-69233010D01*
X142449271Y-69233012D01*
X142278900Y-69360930D01*
X142274765Y-69364035D01*
X142235325Y-69405307D01*
X142181080Y-69462071D01*
X142120429Y-69525538D01*
X142114985Y-69533518D01*
X142060076Y-69578518D01*
X141989551Y-69586688D01*
X141925804Y-69555433D01*
X141889075Y-69494675D01*
X141884900Y-69462510D01*
X141884900Y-68020700D01*
X141904902Y-67952579D01*
X141958558Y-67906086D01*
X142010900Y-67894700D01*
X162230300Y-67894700D01*
X162298421Y-67914702D01*
G37*
G04 #@! TD.AperFunction*
M02*
