M48
; DRILL file {KiCad (6.0.5)} date Wed Dec 14 22:41:47 2022
; FORMAT={-:-/ absolute / metric / decimal}
; #@! TF.CreationDate,2022-12-14T22:41:47+01:00
; #@! TF.GenerationSoftware,Kicad,Pcbnew,(6.0.5)
; #@! TF.FileFunction,Plated,1,2,PTH
FMAT,2
METRIC
; #@! TA.AperFunction,Plated,PTH,ComponentDrill
T1C0.800
; #@! TA.AperFunction,Plated,PTH,ComponentDrill
T2C1.000
%
G90
G05
T1
X121.29Y-98.41
X121.29Y-106.03
X123.83Y-98.41
X123.83Y-106.03
X126.37Y-98.41
X126.37Y-106.03
X128.91Y-98.41
X128.91Y-106.03
X131.45Y-98.41
X131.45Y-106.03
X133.99Y-98.41
X133.99Y-106.03
X136.53Y-98.41
X136.53Y-106.03
X139.07Y-98.41
X139.07Y-106.03
X141.61Y-98.41
X141.61Y-106.03
X144.15Y-98.41
X144.15Y-106.03
X146.69Y-98.41
X146.69Y-106.03
X149.23Y-98.41
X149.23Y-106.03
X153.67Y-85.09
X153.67Y-87.63
X153.67Y-90.17
X153.67Y-92.71
X153.67Y-95.25
X153.67Y-97.79
X153.67Y-100.33
X153.67Y-102.87
X161.29Y-85.09
X161.29Y-87.63
X161.29Y-90.17
X161.29Y-92.71
X161.29Y-95.25
X161.29Y-97.79
X161.29Y-100.33
X161.29Y-102.87
T2
X156.21Y-106.68
X158.75Y-106.68
X165.735Y-98.425
X165.735Y-100.965
X165.735Y-104.775
X168.275Y-98.425
X168.275Y-100.965
X168.275Y-104.775
X170.815Y-98.425
X170.815Y-100.965
X170.815Y-104.775
X173.355Y-98.425
X173.355Y-100.965
X173.355Y-104.775
T0
M30
