G04 #@! TF.GenerationSoftware,KiCad,Pcbnew,(6.0.5)*
G04 #@! TF.CreationDate,2023-11-13T21:53:35+01:00*
G04 #@! TF.ProjectId,c128-u3-gal,63313238-2d75-4332-9d67-616c2e6b6963,1*
G04 #@! TF.SameCoordinates,Original*
G04 #@! TF.FileFunction,Legend,Top*
G04 #@! TF.FilePolarity,Positive*
%FSLAX46Y46*%
G04 Gerber Fmt 4.6, Leading zero omitted, Abs format (unit mm)*
G04 Created by KiCad (PCBNEW (6.0.5)) date 2023-11-13 21:53:35*
%MOMM*%
%LPD*%
G01*
G04 APERTURE LIST*
%ADD10C,0.150000*%
%ADD11C,0.120000*%
%ADD12R,1.700000X1.700000*%
%ADD13O,1.700000X1.700000*%
%ADD14R,2.400000X1.600000*%
%ADD15O,2.400000X1.600000*%
%ADD16R,1.600000X2.400000*%
%ADD17O,1.600000X2.400000*%
G04 APERTURE END LIST*
D10*
X123259642Y-93009107D02*
X123223928Y-93044821D01*
X123116785Y-93080535D01*
X123045357Y-93080535D01*
X122938214Y-93044821D01*
X122866785Y-92973392D01*
X122831071Y-92901964D01*
X122795357Y-92759107D01*
X122795357Y-92651964D01*
X122831071Y-92509107D01*
X122866785Y-92437678D01*
X122938214Y-92366250D01*
X123045357Y-92330535D01*
X123116785Y-92330535D01*
X123223928Y-92366250D01*
X123259642Y-92401964D01*
X123973928Y-93080535D02*
X123545357Y-93080535D01*
X123759642Y-93080535D02*
X123759642Y-92330535D01*
X123688214Y-92437678D01*
X123616785Y-92509107D01*
X123545357Y-92544821D01*
X124259642Y-92401964D02*
X124295357Y-92366250D01*
X124366785Y-92330535D01*
X124545357Y-92330535D01*
X124616785Y-92366250D01*
X124652500Y-92401964D01*
X124688214Y-92473392D01*
X124688214Y-92544821D01*
X124652500Y-92651964D01*
X124223928Y-93080535D01*
X124688214Y-93080535D01*
X125116785Y-92651964D02*
X125045357Y-92616250D01*
X125009642Y-92580535D01*
X124973928Y-92509107D01*
X124973928Y-92473392D01*
X125009642Y-92401964D01*
X125045357Y-92366250D01*
X125116785Y-92330535D01*
X125259642Y-92330535D01*
X125331071Y-92366250D01*
X125366785Y-92401964D01*
X125402500Y-92473392D01*
X125402500Y-92509107D01*
X125366785Y-92580535D01*
X125331071Y-92616250D01*
X125259642Y-92651964D01*
X125116785Y-92651964D01*
X125045357Y-92687678D01*
X125009642Y-92723392D01*
X124973928Y-92794821D01*
X124973928Y-92937678D01*
X125009642Y-93009107D01*
X125045357Y-93044821D01*
X125116785Y-93080535D01*
X125259642Y-93080535D01*
X125331071Y-93044821D01*
X125366785Y-93009107D01*
X125402500Y-92937678D01*
X125402500Y-92794821D01*
X125366785Y-92723392D01*
X125331071Y-92687678D01*
X125259642Y-92651964D01*
X125723928Y-93080535D02*
X125723928Y-92330535D01*
X125902500Y-92330535D01*
X126009642Y-92366250D01*
X126081071Y-92437678D01*
X126116785Y-92509107D01*
X126152500Y-92651964D01*
X126152500Y-92759107D01*
X126116785Y-92901964D01*
X126081071Y-92973392D01*
X126009642Y-93044821D01*
X125902500Y-93080535D01*
X125723928Y-93080535D01*
X127009642Y-92294821D02*
X126366785Y-93259107D01*
X127259642Y-93080535D02*
X127259642Y-92330535D01*
X127438214Y-92330535D01*
X127545357Y-92366250D01*
X127616785Y-92437678D01*
X127652500Y-92509107D01*
X127688214Y-92651964D01*
X127688214Y-92759107D01*
X127652500Y-92901964D01*
X127616785Y-92973392D01*
X127545357Y-93044821D01*
X127438214Y-93080535D01*
X127259642Y-93080535D01*
X128438214Y-93009107D02*
X128402500Y-93044821D01*
X128295357Y-93080535D01*
X128223928Y-93080535D01*
X128116785Y-93044821D01*
X128045357Y-92973392D01*
X128009642Y-92901964D01*
X127973928Y-92759107D01*
X127973928Y-92651964D01*
X128009642Y-92509107D01*
X128045357Y-92437678D01*
X128116785Y-92366250D01*
X128223928Y-92330535D01*
X128295357Y-92330535D01*
X128402500Y-92366250D01*
X128438214Y-92401964D01*
X129188214Y-93080535D02*
X128938214Y-92723392D01*
X128759642Y-93080535D02*
X128759642Y-92330535D01*
X129045357Y-92330535D01*
X129116785Y-92366250D01*
X129152500Y-92401964D01*
X129188214Y-92473392D01*
X129188214Y-92580535D01*
X129152500Y-92651964D01*
X129116785Y-92687678D01*
X129045357Y-92723392D01*
X128759642Y-92723392D01*
X130081071Y-92330535D02*
X130081071Y-92937678D01*
X130116785Y-93009107D01*
X130152500Y-93044821D01*
X130223928Y-93080535D01*
X130366785Y-93080535D01*
X130438214Y-93044821D01*
X130473928Y-93009107D01*
X130509642Y-92937678D01*
X130509642Y-92330535D01*
X130795357Y-92330535D02*
X131259642Y-92330535D01*
X131009642Y-92616250D01*
X131116785Y-92616250D01*
X131188214Y-92651964D01*
X131223928Y-92687678D01*
X131259642Y-92759107D01*
X131259642Y-92937678D01*
X131223928Y-93009107D01*
X131188214Y-93044821D01*
X131116785Y-93080535D01*
X130902500Y-93080535D01*
X130831071Y-93044821D01*
X130795357Y-93009107D01*
X132473928Y-93080535D02*
X132473928Y-92687678D01*
X132438214Y-92616250D01*
X132366785Y-92580535D01*
X132223928Y-92580535D01*
X132152500Y-92616250D01*
X132473928Y-93044821D02*
X132402500Y-93080535D01*
X132223928Y-93080535D01*
X132152500Y-93044821D01*
X132116785Y-92973392D01*
X132116785Y-92901964D01*
X132152500Y-92830535D01*
X132223928Y-92794821D01*
X132402500Y-92794821D01*
X132473928Y-92759107D01*
X133152500Y-93080535D02*
X133152500Y-92330535D01*
X133152500Y-93044821D02*
X133081071Y-93080535D01*
X132938214Y-93080535D01*
X132866785Y-93044821D01*
X132831071Y-93009107D01*
X132795357Y-92937678D01*
X132795357Y-92723392D01*
X132831071Y-92651964D01*
X132866785Y-92616250D01*
X132938214Y-92580535D01*
X133081071Y-92580535D01*
X133152500Y-92616250D01*
X133831071Y-93080535D02*
X133831071Y-92330535D01*
X133831071Y-93044821D02*
X133759642Y-93080535D01*
X133616785Y-93080535D01*
X133545357Y-93044821D01*
X133509642Y-93009107D01*
X133473928Y-92937678D01*
X133473928Y-92723392D01*
X133509642Y-92651964D01*
X133545357Y-92616250D01*
X133616785Y-92580535D01*
X133759642Y-92580535D01*
X133831071Y-92616250D01*
X134188214Y-93080535D02*
X134188214Y-92580535D01*
X134188214Y-92723392D02*
X134223928Y-92651964D01*
X134259642Y-92616250D01*
X134331071Y-92580535D01*
X134402500Y-92580535D01*
X134938214Y-93044821D02*
X134866785Y-93080535D01*
X134723928Y-93080535D01*
X134652500Y-93044821D01*
X134616785Y-92973392D01*
X134616785Y-92687678D01*
X134652500Y-92616250D01*
X134723928Y-92580535D01*
X134866785Y-92580535D01*
X134938214Y-92616250D01*
X134973928Y-92687678D01*
X134973928Y-92759107D01*
X134616785Y-92830535D01*
X135259642Y-93044821D02*
X135331071Y-93080535D01*
X135473928Y-93080535D01*
X135545357Y-93044821D01*
X135581071Y-92973392D01*
X135581071Y-92937678D01*
X135545357Y-92866250D01*
X135473928Y-92830535D01*
X135366785Y-92830535D01*
X135295357Y-92794821D01*
X135259642Y-92723392D01*
X135259642Y-92687678D01*
X135295357Y-92616250D01*
X135366785Y-92580535D01*
X135473928Y-92580535D01*
X135545357Y-92616250D01*
X135866785Y-93044821D02*
X135938214Y-93080535D01*
X136081071Y-93080535D01*
X136152500Y-93044821D01*
X136188214Y-92973392D01*
X136188214Y-92937678D01*
X136152500Y-92866250D01*
X136081071Y-92830535D01*
X135973928Y-92830535D01*
X135902500Y-92794821D01*
X135866785Y-92723392D01*
X135866785Y-92687678D01*
X135902500Y-92616250D01*
X135973928Y-92580535D01*
X136081071Y-92580535D01*
X136152500Y-92616250D01*
X137402500Y-93080535D02*
X137402500Y-92330535D01*
X137402500Y-93044821D02*
X137331071Y-93080535D01*
X137188214Y-93080535D01*
X137116785Y-93044821D01*
X137081071Y-93009107D01*
X137045357Y-92937678D01*
X137045357Y-92723392D01*
X137081071Y-92651964D01*
X137116785Y-92616250D01*
X137188214Y-92580535D01*
X137331071Y-92580535D01*
X137402500Y-92616250D01*
X138045357Y-93044821D02*
X137973928Y-93080535D01*
X137831071Y-93080535D01*
X137759642Y-93044821D01*
X137723928Y-92973392D01*
X137723928Y-92687678D01*
X137759642Y-92616250D01*
X137831071Y-92580535D01*
X137973928Y-92580535D01*
X138045357Y-92616250D01*
X138081071Y-92687678D01*
X138081071Y-92759107D01*
X137723928Y-92830535D01*
X138723928Y-93044821D02*
X138652500Y-93080535D01*
X138509642Y-93080535D01*
X138438214Y-93044821D01*
X138402500Y-93009107D01*
X138366785Y-92937678D01*
X138366785Y-92723392D01*
X138402500Y-92651964D01*
X138438214Y-92616250D01*
X138509642Y-92580535D01*
X138652500Y-92580535D01*
X138723928Y-92616250D01*
X139152500Y-93080535D02*
X139081071Y-93044821D01*
X139045357Y-93009107D01*
X139009642Y-92937678D01*
X139009642Y-92723392D01*
X139045357Y-92651964D01*
X139081071Y-92616250D01*
X139152500Y-92580535D01*
X139259642Y-92580535D01*
X139331071Y-92616250D01*
X139366785Y-92651964D01*
X139402500Y-92723392D01*
X139402500Y-92937678D01*
X139366785Y-93009107D01*
X139331071Y-93044821D01*
X139259642Y-93080535D01*
X139152500Y-93080535D01*
X140045357Y-93080535D02*
X140045357Y-92330535D01*
X140045357Y-93044821D02*
X139973928Y-93080535D01*
X139831071Y-93080535D01*
X139759642Y-93044821D01*
X139723928Y-93009107D01*
X139688214Y-92937678D01*
X139688214Y-92723392D01*
X139723928Y-92651964D01*
X139759642Y-92616250D01*
X139831071Y-92580535D01*
X139973928Y-92580535D01*
X140045357Y-92616250D01*
X140688214Y-93044821D02*
X140616785Y-93080535D01*
X140473928Y-93080535D01*
X140402500Y-93044821D01*
X140366785Y-92973392D01*
X140366785Y-92687678D01*
X140402500Y-92616250D01*
X140473928Y-92580535D01*
X140616785Y-92580535D01*
X140688214Y-92616250D01*
X140723928Y-92687678D01*
X140723928Y-92759107D01*
X140366785Y-92830535D01*
X141045357Y-93080535D02*
X141045357Y-92580535D01*
X141045357Y-92723392D02*
X141081071Y-92651964D01*
X141116785Y-92616250D01*
X141188214Y-92580535D01*
X141259642Y-92580535D01*
X122831071Y-94288035D02*
X122831071Y-93538035D01*
X123081071Y-94073750D01*
X123331071Y-93538035D01*
X123331071Y-94288035D01*
X124009642Y-94288035D02*
X124009642Y-93895178D01*
X123973928Y-93823750D01*
X123902500Y-93788035D01*
X123759642Y-93788035D01*
X123688214Y-93823750D01*
X124009642Y-94252321D02*
X123938214Y-94288035D01*
X123759642Y-94288035D01*
X123688214Y-94252321D01*
X123652500Y-94180892D01*
X123652500Y-94109464D01*
X123688214Y-94038035D01*
X123759642Y-94002321D01*
X123938214Y-94002321D01*
X124009642Y-93966607D01*
X124688214Y-94252321D02*
X124616785Y-94288035D01*
X124473928Y-94288035D01*
X124402500Y-94252321D01*
X124366785Y-94216607D01*
X124331071Y-94145178D01*
X124331071Y-93930892D01*
X124366785Y-93859464D01*
X124402500Y-93823750D01*
X124473928Y-93788035D01*
X124616785Y-93788035D01*
X124688214Y-93823750D01*
X125009642Y-94288035D02*
X125009642Y-93788035D01*
X125009642Y-93538035D02*
X124973928Y-93573750D01*
X125009642Y-93609464D01*
X125045357Y-93573750D01*
X125009642Y-93538035D01*
X125009642Y-93609464D01*
X125652500Y-94252321D02*
X125581071Y-94288035D01*
X125438214Y-94288035D01*
X125366785Y-94252321D01*
X125331071Y-94180892D01*
X125331071Y-93895178D01*
X125366785Y-93823750D01*
X125438214Y-93788035D01*
X125581071Y-93788035D01*
X125652500Y-93823750D01*
X125688214Y-93895178D01*
X125688214Y-93966607D01*
X125331071Y-94038035D01*
X126009642Y-93788035D02*
X126009642Y-94430892D01*
X125973928Y-94502321D01*
X125902500Y-94538035D01*
X125866785Y-94538035D01*
X126009642Y-93538035D02*
X125973928Y-93573750D01*
X126009642Y-93609464D01*
X126045357Y-93573750D01*
X126009642Y-93538035D01*
X126009642Y-93609464D01*
X126866785Y-93538035D02*
X127045357Y-94288035D01*
X127188214Y-93752321D01*
X127331071Y-94288035D01*
X127509642Y-93538035D01*
X127795357Y-94288035D02*
X127795357Y-93788035D01*
X127795357Y-93538035D02*
X127759642Y-93573750D01*
X127795357Y-93609464D01*
X127831071Y-93573750D01*
X127795357Y-93538035D01*
X127795357Y-93609464D01*
X128045357Y-93788035D02*
X128331071Y-93788035D01*
X128152500Y-93538035D02*
X128152500Y-94180892D01*
X128188214Y-94252321D01*
X128259642Y-94288035D01*
X128331071Y-94288035D01*
X128581071Y-94288035D02*
X128581071Y-93538035D01*
X128652500Y-94002321D02*
X128866785Y-94288035D01*
X128866785Y-93788035D02*
X128581071Y-94073750D01*
X129295357Y-94288035D02*
X129223928Y-94252321D01*
X129188214Y-94216607D01*
X129152500Y-94145178D01*
X129152500Y-93930892D01*
X129188214Y-93859464D01*
X129223928Y-93823750D01*
X129295357Y-93788035D01*
X129402500Y-93788035D01*
X129473928Y-93823750D01*
X129509642Y-93859464D01*
X129545357Y-93930892D01*
X129545357Y-94145178D01*
X129509642Y-94216607D01*
X129473928Y-94252321D01*
X129402500Y-94288035D01*
X129295357Y-94288035D01*
X129795357Y-93788035D02*
X129938214Y-94288035D01*
X130081071Y-93930892D01*
X130223928Y-94288035D01*
X130366785Y-93788035D01*
X130652500Y-94288035D02*
X130652500Y-93788035D01*
X130652500Y-93538035D02*
X130616785Y-93573750D01*
X130652500Y-93609464D01*
X130688214Y-93573750D01*
X130652500Y-93538035D01*
X130652500Y-93609464D01*
X131331071Y-94288035D02*
X131331071Y-93895178D01*
X131295357Y-93823750D01*
X131223928Y-93788035D01*
X131081071Y-93788035D01*
X131009642Y-93823750D01*
X131331071Y-94252321D02*
X131259642Y-94288035D01*
X131081071Y-94288035D01*
X131009642Y-94252321D01*
X130973928Y-94180892D01*
X130973928Y-94109464D01*
X131009642Y-94038035D01*
X131081071Y-94002321D01*
X131259642Y-94002321D01*
X131331071Y-93966607D01*
X131688214Y-94288035D02*
X131688214Y-93538035D01*
X131759642Y-94002321D02*
X131973928Y-94288035D01*
X131973928Y-93788035D02*
X131688214Y-94073750D01*
X133438214Y-93788035D02*
X132866785Y-94002321D01*
X133438214Y-94216607D01*
X133723928Y-93788035D02*
X133902500Y-94288035D01*
X134081071Y-93788035D02*
X133902500Y-94288035D01*
X133831071Y-94466607D01*
X133795357Y-94502321D01*
X133723928Y-94538035D01*
X134259642Y-93788035D02*
X134545357Y-93788035D01*
X134366785Y-93538035D02*
X134366785Y-94180892D01*
X134402500Y-94252321D01*
X134473928Y-94288035D01*
X134545357Y-94288035D01*
X134795357Y-94288035D02*
X134795357Y-93788035D01*
X134795357Y-93859464D02*
X134831071Y-93823750D01*
X134902500Y-93788035D01*
X135009642Y-93788035D01*
X135081071Y-93823750D01*
X135116785Y-93895178D01*
X135116785Y-94288035D01*
X135116785Y-93895178D02*
X135152500Y-93823750D01*
X135223928Y-93788035D01*
X135331071Y-93788035D01*
X135402500Y-93823750D01*
X135438214Y-93895178D01*
X135438214Y-94288035D01*
X136259642Y-93930892D02*
X136223928Y-93895178D01*
X136152500Y-93859464D01*
X136081071Y-93859464D01*
X136009642Y-93895178D01*
X135973928Y-93930892D01*
X135938214Y-94002321D01*
X135938214Y-94073750D01*
X135973928Y-94145178D01*
X136009642Y-94180892D01*
X136081071Y-94216607D01*
X136152500Y-94216607D01*
X136223928Y-94180892D01*
X136259642Y-94145178D01*
X136259642Y-93859464D02*
X136259642Y-94145178D01*
X136295357Y-94180892D01*
X136331071Y-94180892D01*
X136402500Y-94145178D01*
X136438214Y-94073750D01*
X136438214Y-93895178D01*
X136366785Y-93788035D01*
X136259642Y-93716607D01*
X136116785Y-93680892D01*
X135973928Y-93716607D01*
X135866785Y-93788035D01*
X135795357Y-93895178D01*
X135759642Y-94038035D01*
X135795357Y-94180892D01*
X135866785Y-94288035D01*
X135973928Y-94359464D01*
X136116785Y-94395178D01*
X136259642Y-94359464D01*
X136366785Y-94288035D01*
X137045357Y-94252321D02*
X136973928Y-94288035D01*
X136831071Y-94288035D01*
X136759642Y-94252321D01*
X136723928Y-94180892D01*
X136723928Y-93895178D01*
X136759642Y-93823750D01*
X136831071Y-93788035D01*
X136973928Y-93788035D01*
X137045357Y-93823750D01*
X137081071Y-93895178D01*
X137081071Y-93966607D01*
X136723928Y-94038035D01*
X137509642Y-94288035D02*
X137438214Y-94252321D01*
X137402500Y-94180892D01*
X137402500Y-93538035D01*
X137723928Y-93788035D02*
X137902500Y-94288035D01*
X138081071Y-93788035D02*
X137902500Y-94288035D01*
X137831071Y-94466607D01*
X137795357Y-94502321D01*
X137723928Y-94538035D01*
X138331071Y-94252321D02*
X138402500Y-94288035D01*
X138545357Y-94288035D01*
X138616785Y-94252321D01*
X138652500Y-94180892D01*
X138652500Y-94145178D01*
X138616785Y-94073750D01*
X138545357Y-94038035D01*
X138438214Y-94038035D01*
X138366785Y-94002321D01*
X138331071Y-93930892D01*
X138331071Y-93895178D01*
X138366785Y-93823750D01*
X138438214Y-93788035D01*
X138545357Y-93788035D01*
X138616785Y-93823750D01*
X138973928Y-94288035D02*
X138973928Y-93788035D01*
X138973928Y-93538035D02*
X138938214Y-93573750D01*
X138973928Y-93609464D01*
X139009642Y-93573750D01*
X138973928Y-93538035D01*
X138973928Y-93609464D01*
X139652500Y-93788035D02*
X139652500Y-94288035D01*
X139331071Y-93788035D02*
X139331071Y-94180892D01*
X139366785Y-94252321D01*
X139438214Y-94288035D01*
X139545357Y-94288035D01*
X139616785Y-94252321D01*
X139652500Y-94216607D01*
X140009642Y-94288035D02*
X140009642Y-93788035D01*
X140009642Y-93859464D02*
X140045357Y-93823750D01*
X140116785Y-93788035D01*
X140223928Y-93788035D01*
X140295357Y-93823750D01*
X140331071Y-93895178D01*
X140331071Y-94288035D01*
X140331071Y-93895178D02*
X140366785Y-93823750D01*
X140438214Y-93788035D01*
X140545357Y-93788035D01*
X140616785Y-93823750D01*
X140652500Y-93895178D01*
X140652500Y-94288035D01*
X141009642Y-94216607D02*
X141045357Y-94252321D01*
X141009642Y-94288035D01*
X140973928Y-94252321D01*
X141009642Y-94216607D01*
X141009642Y-94288035D01*
X141366785Y-93788035D02*
X141366785Y-94538035D01*
X141366785Y-93823750D02*
X141438214Y-93788035D01*
X141581071Y-93788035D01*
X141652500Y-93823750D01*
X141688214Y-93859464D01*
X141723928Y-93930892D01*
X141723928Y-94145178D01*
X141688214Y-94216607D01*
X141652500Y-94252321D01*
X141581071Y-94288035D01*
X141438214Y-94288035D01*
X141366785Y-94252321D01*
X142152500Y-94288035D02*
X142081071Y-94252321D01*
X142045357Y-94180892D01*
X142045357Y-93538035D01*
X142438214Y-93788035D02*
X143009642Y-94002321D01*
X142438214Y-94216607D01*
X143402500Y-94252321D02*
X143402500Y-94288035D01*
X143366785Y-94359464D01*
X143331071Y-94395178D01*
X144223928Y-93538035D02*
X144723928Y-94288035D01*
X144723928Y-93538035D02*
X144223928Y-94288035D01*
X145009642Y-94288035D02*
X145009642Y-93538035D01*
X145366785Y-94288035D02*
X145366785Y-93538035D01*
X146259642Y-93609464D02*
X146295357Y-93573750D01*
X146366785Y-93538035D01*
X146545357Y-93538035D01*
X146616785Y-93573750D01*
X146652500Y-93609464D01*
X146688214Y-93680892D01*
X146688214Y-93752321D01*
X146652500Y-93859464D01*
X146223928Y-94288035D01*
X146688214Y-94288035D01*
X147152500Y-93538035D02*
X147223928Y-93538035D01*
X147295357Y-93573750D01*
X147331071Y-93609464D01*
X147366785Y-93680892D01*
X147402500Y-93823750D01*
X147402500Y-94002321D01*
X147366785Y-94145178D01*
X147331071Y-94216607D01*
X147295357Y-94252321D01*
X147223928Y-94288035D01*
X147152500Y-94288035D01*
X147081071Y-94252321D01*
X147045357Y-94216607D01*
X147009642Y-94145178D01*
X146973928Y-94002321D01*
X146973928Y-93823750D01*
X147009642Y-93680892D01*
X147045357Y-93609464D01*
X147081071Y-93573750D01*
X147152500Y-93538035D01*
X147688214Y-93609464D02*
X147723928Y-93573750D01*
X147795357Y-93538035D01*
X147973928Y-93538035D01*
X148045357Y-93573750D01*
X148081071Y-93609464D01*
X148116785Y-93680892D01*
X148116785Y-93752321D01*
X148081071Y-93859464D01*
X147652500Y-94288035D01*
X148116785Y-94288035D01*
X148402500Y-93609464D02*
X148438214Y-93573750D01*
X148509642Y-93538035D01*
X148688214Y-93538035D01*
X148759642Y-93573750D01*
X148795357Y-93609464D01*
X148831071Y-93680892D01*
X148831071Y-93752321D01*
X148795357Y-93859464D01*
X148366785Y-94288035D01*
X148831071Y-94288035D01*
X171082857Y-108575000D02*
X171118571Y-108610714D01*
X171154285Y-108717857D01*
X171154285Y-108789285D01*
X171118571Y-108896428D01*
X171047142Y-108967857D01*
X170975714Y-109003571D01*
X170832857Y-109039285D01*
X170725714Y-109039285D01*
X170582857Y-109003571D01*
X170511428Y-108967857D01*
X170440000Y-108896428D01*
X170404285Y-108789285D01*
X170404285Y-108717857D01*
X170440000Y-108610714D01*
X170475714Y-108575000D01*
X171154285Y-108253571D02*
X170404285Y-108253571D01*
X170940000Y-107932142D02*
X170940000Y-107575000D01*
X171154285Y-108003571D02*
X170404285Y-107753571D01*
X171154285Y-107503571D01*
X170404285Y-107325000D02*
X170404285Y-106860714D01*
X170690000Y-107110714D01*
X170690000Y-107003571D01*
X170725714Y-106932142D01*
X170761428Y-106896428D01*
X170832857Y-106860714D01*
X171011428Y-106860714D01*
X171082857Y-106896428D01*
X171118571Y-106932142D01*
X171154285Y-107003571D01*
X171154285Y-107217857D01*
X171118571Y-107289285D01*
X171082857Y-107325000D01*
X170151000Y-96856190D02*
X170151000Y-96056190D01*
X171100714Y-96208571D02*
X171138809Y-96246666D01*
X171176904Y-96360952D01*
X171176904Y-96437142D01*
X171138809Y-96551428D01*
X171062619Y-96627619D01*
X170986428Y-96665714D01*
X170834047Y-96703809D01*
X170719761Y-96703809D01*
X170567380Y-96665714D01*
X170491190Y-96627619D01*
X170415000Y-96551428D01*
X170376904Y-96437142D01*
X170376904Y-96360952D01*
X170415000Y-96246666D01*
X170453095Y-96208571D01*
X170151000Y-96056190D02*
X170151000Y-95675238D01*
X171176904Y-95865714D02*
X170376904Y-95865714D01*
X170151000Y-95675238D02*
X170151000Y-94989523D01*
X170948333Y-95522857D02*
X170948333Y-95141904D01*
X171176904Y-95599047D02*
X170376904Y-95332380D01*
X171176904Y-95065714D01*
X170151000Y-94989523D02*
X170151000Y-94227619D01*
X170376904Y-94875238D02*
X170376904Y-94380000D01*
X170681666Y-94646666D01*
X170681666Y-94532380D01*
X170719761Y-94456190D01*
X170757857Y-94418095D01*
X170834047Y-94380000D01*
X171024523Y-94380000D01*
X171100714Y-94418095D01*
X171138809Y-94456190D01*
X171176904Y-94532380D01*
X171176904Y-94760952D01*
X171138809Y-94837142D01*
X171100714Y-94875238D01*
X170151000Y-94227619D02*
X170151000Y-93427619D01*
X171176904Y-94037142D02*
X170376904Y-94037142D01*
X170376904Y-93846666D01*
X170415000Y-93732380D01*
X170491190Y-93656190D01*
X170567380Y-93618095D01*
X170719761Y-93580000D01*
X170834047Y-93580000D01*
X170986428Y-93618095D01*
X171062619Y-93656190D01*
X171138809Y-93732380D01*
X171176904Y-93846666D01*
X171176904Y-94037142D01*
X170151000Y-93427619D02*
X170151000Y-92627619D01*
X171100714Y-92780000D02*
X171138809Y-92818095D01*
X171176904Y-92932380D01*
X171176904Y-93008571D01*
X171138809Y-93122857D01*
X171062619Y-93199047D01*
X170986428Y-93237142D01*
X170834047Y-93275238D01*
X170719761Y-93275238D01*
X170567380Y-93237142D01*
X170491190Y-93199047D01*
X170415000Y-93122857D01*
X170376904Y-93008571D01*
X170376904Y-92932380D01*
X170415000Y-92818095D01*
X170453095Y-92780000D01*
X170151000Y-92627619D02*
X170151000Y-91865714D01*
X170453095Y-92475238D02*
X170415000Y-92437142D01*
X170376904Y-92360952D01*
X170376904Y-92170476D01*
X170415000Y-92094285D01*
X170453095Y-92056190D01*
X170529285Y-92018095D01*
X170605476Y-92018095D01*
X170719761Y-92056190D01*
X171176904Y-92513333D01*
X171176904Y-92018095D01*
X170151000Y-91865714D02*
X170151000Y-91103809D01*
X170376904Y-91522857D02*
X170376904Y-91446666D01*
X170415000Y-91370476D01*
X170453095Y-91332380D01*
X170529285Y-91294285D01*
X170681666Y-91256190D01*
X170872142Y-91256190D01*
X171024523Y-91294285D01*
X171100714Y-91332380D01*
X171138809Y-91370476D01*
X171176904Y-91446666D01*
X171176904Y-91522857D01*
X171138809Y-91599047D01*
X171100714Y-91637142D01*
X171024523Y-91675238D01*
X170872142Y-91713333D01*
X170681666Y-91713333D01*
X170529285Y-91675238D01*
X170453095Y-91637142D01*
X170415000Y-91599047D01*
X170376904Y-91522857D01*
X167611000Y-96799047D02*
X167611000Y-96113333D01*
X168408333Y-96646666D02*
X168408333Y-96265714D01*
X168636904Y-96722857D02*
X167836904Y-96456190D01*
X168636904Y-96189523D01*
X167611000Y-96113333D02*
X167611000Y-95313333D01*
X168560714Y-95465714D02*
X168598809Y-95503809D01*
X168636904Y-95618095D01*
X168636904Y-95694285D01*
X168598809Y-95808571D01*
X168522619Y-95884761D01*
X168446428Y-95922857D01*
X168294047Y-95960952D01*
X168179761Y-95960952D01*
X168027380Y-95922857D01*
X167951190Y-95884761D01*
X167875000Y-95808571D01*
X167836904Y-95694285D01*
X167836904Y-95618095D01*
X167875000Y-95503809D01*
X167913095Y-95465714D01*
X167611000Y-95313333D02*
X167611000Y-94932380D01*
X168636904Y-95122857D02*
X167836904Y-95122857D01*
X167611000Y-94932380D02*
X167611000Y-94246666D01*
X168408333Y-94780000D02*
X168408333Y-94399047D01*
X168636904Y-94856190D02*
X167836904Y-94589523D01*
X168636904Y-94322857D01*
X167611000Y-94246666D02*
X167611000Y-93446666D01*
X168636904Y-94056190D02*
X167836904Y-94056190D01*
X167836904Y-93865714D01*
X167875000Y-93751428D01*
X167951190Y-93675238D01*
X168027380Y-93637142D01*
X168179761Y-93599047D01*
X168294047Y-93599047D01*
X168446428Y-93637142D01*
X168522619Y-93675238D01*
X168598809Y-93751428D01*
X168636904Y-93865714D01*
X168636904Y-94056190D01*
X167611000Y-93446666D02*
X167611000Y-92684761D01*
X167836904Y-93332380D02*
X167836904Y-92799047D01*
X168636904Y-93141904D01*
X167611000Y-92684761D02*
X167611000Y-91922857D01*
X167836904Y-92341904D02*
X167836904Y-92265714D01*
X167875000Y-92189523D01*
X167913095Y-92151428D01*
X167989285Y-92113333D01*
X168141666Y-92075238D01*
X168332142Y-92075238D01*
X168484523Y-92113333D01*
X168560714Y-92151428D01*
X168598809Y-92189523D01*
X168636904Y-92265714D01*
X168636904Y-92341904D01*
X168598809Y-92418095D01*
X168560714Y-92456190D01*
X168484523Y-92494285D01*
X168332142Y-92532380D01*
X168141666Y-92532380D01*
X167989285Y-92494285D01*
X167913095Y-92456190D01*
X167875000Y-92418095D01*
X167836904Y-92341904D01*
X167611000Y-91922857D02*
X167611000Y-91160952D01*
X167836904Y-91580000D02*
X167836904Y-91503809D01*
X167875000Y-91427619D01*
X167913095Y-91389523D01*
X167989285Y-91351428D01*
X168141666Y-91313333D01*
X168332142Y-91313333D01*
X168484523Y-91351428D01*
X168560714Y-91389523D01*
X168598809Y-91427619D01*
X168636904Y-91503809D01*
X168636904Y-91580000D01*
X168598809Y-91656190D01*
X168560714Y-91694285D01*
X168484523Y-91732380D01*
X168332142Y-91770476D01*
X168141666Y-91770476D01*
X167989285Y-91732380D01*
X167913095Y-91694285D01*
X167875000Y-91656190D01*
X167836904Y-91580000D01*
X173622857Y-108575000D02*
X173658571Y-108610714D01*
X173694285Y-108717857D01*
X173694285Y-108789285D01*
X173658571Y-108896428D01*
X173587142Y-108967857D01*
X173515714Y-109003571D01*
X173372857Y-109039285D01*
X173265714Y-109039285D01*
X173122857Y-109003571D01*
X173051428Y-108967857D01*
X172980000Y-108896428D01*
X172944285Y-108789285D01*
X172944285Y-108717857D01*
X172980000Y-108610714D01*
X173015714Y-108575000D01*
X173694285Y-108253571D02*
X172944285Y-108253571D01*
X173480000Y-107932142D02*
X173480000Y-107575000D01*
X173694285Y-108003571D02*
X172944285Y-107753571D01*
X173694285Y-107503571D01*
X173194285Y-106932142D02*
X173694285Y-106932142D01*
X172908571Y-107110714D02*
X173444285Y-107289285D01*
X173444285Y-106825000D01*
X172691000Y-96856190D02*
X172691000Y-96056190D01*
X173640714Y-96208571D02*
X173678809Y-96246666D01*
X173716904Y-96360952D01*
X173716904Y-96437142D01*
X173678809Y-96551428D01*
X173602619Y-96627619D01*
X173526428Y-96665714D01*
X173374047Y-96703809D01*
X173259761Y-96703809D01*
X173107380Y-96665714D01*
X173031190Y-96627619D01*
X172955000Y-96551428D01*
X172916904Y-96437142D01*
X172916904Y-96360952D01*
X172955000Y-96246666D01*
X172993095Y-96208571D01*
X172691000Y-96056190D02*
X172691000Y-95675238D01*
X173716904Y-95865714D02*
X172916904Y-95865714D01*
X172691000Y-95675238D02*
X172691000Y-94989523D01*
X173488333Y-95522857D02*
X173488333Y-95141904D01*
X173716904Y-95599047D02*
X172916904Y-95332380D01*
X173716904Y-95065714D01*
X172691000Y-94989523D02*
X172691000Y-94227619D01*
X173183571Y-94456190D02*
X173716904Y-94456190D01*
X172878809Y-94646666D02*
X173450238Y-94837142D01*
X173450238Y-94341904D01*
X172691000Y-94227619D02*
X172691000Y-93427619D01*
X173716904Y-94037142D02*
X172916904Y-94037142D01*
X172916904Y-93846666D01*
X172955000Y-93732380D01*
X173031190Y-93656190D01*
X173107380Y-93618095D01*
X173259761Y-93580000D01*
X173374047Y-93580000D01*
X173526428Y-93618095D01*
X173602619Y-93656190D01*
X173678809Y-93732380D01*
X173716904Y-93846666D01*
X173716904Y-94037142D01*
X172691000Y-93427619D02*
X172691000Y-92627619D01*
X173716904Y-93237142D02*
X172916904Y-93237142D01*
X172916904Y-93046666D01*
X172955000Y-92932380D01*
X173031190Y-92856190D01*
X173107380Y-92818095D01*
X173259761Y-92780000D01*
X173374047Y-92780000D01*
X173526428Y-92818095D01*
X173602619Y-92856190D01*
X173678809Y-92932380D01*
X173716904Y-93046666D01*
X173716904Y-93237142D01*
X172691000Y-92627619D02*
X172691000Y-91865714D01*
X172993095Y-92475238D02*
X172955000Y-92437142D01*
X172916904Y-92360952D01*
X172916904Y-92170476D01*
X172955000Y-92094285D01*
X172993095Y-92056190D01*
X173069285Y-92018095D01*
X173145476Y-92018095D01*
X173259761Y-92056190D01*
X173716904Y-92513333D01*
X173716904Y-92018095D01*
X172691000Y-91865714D02*
X172691000Y-91103809D01*
X172916904Y-91522857D02*
X172916904Y-91446666D01*
X172955000Y-91370476D01*
X172993095Y-91332380D01*
X173069285Y-91294285D01*
X173221666Y-91256190D01*
X173412142Y-91256190D01*
X173564523Y-91294285D01*
X173640714Y-91332380D01*
X173678809Y-91370476D01*
X173716904Y-91446666D01*
X173716904Y-91522857D01*
X173678809Y-91599047D01*
X173640714Y-91637142D01*
X173564523Y-91675238D01*
X173412142Y-91713333D01*
X173221666Y-91713333D01*
X173069285Y-91675238D01*
X172993095Y-91637142D01*
X172955000Y-91599047D01*
X172916904Y-91522857D01*
X166038571Y-109075000D02*
X166074285Y-108967857D01*
X166074285Y-108789285D01*
X166038571Y-108717857D01*
X166002857Y-108682142D01*
X165931428Y-108646428D01*
X165860000Y-108646428D01*
X165788571Y-108682142D01*
X165752857Y-108717857D01*
X165717142Y-108789285D01*
X165681428Y-108932142D01*
X165645714Y-109003571D01*
X165610000Y-109039285D01*
X165538571Y-109075000D01*
X165467142Y-109075000D01*
X165395714Y-109039285D01*
X165360000Y-109003571D01*
X165324285Y-108932142D01*
X165324285Y-108753571D01*
X165360000Y-108646428D01*
X166074285Y-108325000D02*
X165324285Y-108325000D01*
X166074285Y-107967857D02*
X165324285Y-107967857D01*
X165324285Y-107789285D01*
X165360000Y-107682142D01*
X165431428Y-107610714D01*
X165502857Y-107575000D01*
X165645714Y-107539285D01*
X165752857Y-107539285D01*
X165895714Y-107575000D01*
X165967142Y-107610714D01*
X166038571Y-107682142D01*
X166074285Y-107789285D01*
X166074285Y-107967857D01*
X165395714Y-107253571D02*
X165360000Y-107217857D01*
X165324285Y-107146428D01*
X165324285Y-106967857D01*
X165360000Y-106896428D01*
X165395714Y-106860714D01*
X165467142Y-106825000D01*
X165538571Y-106825000D01*
X165645714Y-106860714D01*
X166074285Y-107289285D01*
X166074285Y-106825000D01*
X165071000Y-96475238D02*
X165071000Y-95713333D01*
X166058809Y-96322857D02*
X166096904Y-96208571D01*
X166096904Y-96018095D01*
X166058809Y-95941904D01*
X166020714Y-95903809D01*
X165944523Y-95865714D01*
X165868333Y-95865714D01*
X165792142Y-95903809D01*
X165754047Y-95941904D01*
X165715952Y-96018095D01*
X165677857Y-96170476D01*
X165639761Y-96246666D01*
X165601666Y-96284761D01*
X165525476Y-96322857D01*
X165449285Y-96322857D01*
X165373095Y-96284761D01*
X165335000Y-96246666D01*
X165296904Y-96170476D01*
X165296904Y-95980000D01*
X165335000Y-95865714D01*
X165071000Y-95713333D02*
X165071000Y-95332380D01*
X166096904Y-95522857D02*
X165296904Y-95522857D01*
X165071000Y-95332380D02*
X165071000Y-94532380D01*
X166096904Y-95141904D02*
X165296904Y-95141904D01*
X165296904Y-94951428D01*
X165335000Y-94837142D01*
X165411190Y-94760952D01*
X165487380Y-94722857D01*
X165639761Y-94684761D01*
X165754047Y-94684761D01*
X165906428Y-94722857D01*
X165982619Y-94760952D01*
X166058809Y-94837142D01*
X166096904Y-94951428D01*
X166096904Y-95141904D01*
X165071000Y-94532380D02*
X165071000Y-93732380D01*
X166096904Y-94341904D02*
X165296904Y-94341904D01*
X165296904Y-94151428D01*
X165335000Y-94037142D01*
X165411190Y-93960952D01*
X165487380Y-93922857D01*
X165639761Y-93884761D01*
X165754047Y-93884761D01*
X165906428Y-93922857D01*
X165982619Y-93960952D01*
X166058809Y-94037142D01*
X166096904Y-94151428D01*
X166096904Y-94341904D01*
X165071000Y-93732380D02*
X165071000Y-93008571D01*
X165677857Y-93541904D02*
X165677857Y-93275238D01*
X166096904Y-93160952D02*
X166096904Y-93541904D01*
X165296904Y-93541904D01*
X165296904Y-93160952D01*
X165071000Y-93008571D02*
X165071000Y-92246666D01*
X165296904Y-92665714D02*
X165296904Y-92589523D01*
X165335000Y-92513333D01*
X165373095Y-92475238D01*
X165449285Y-92437142D01*
X165601666Y-92399047D01*
X165792142Y-92399047D01*
X165944523Y-92437142D01*
X166020714Y-92475238D01*
X166058809Y-92513333D01*
X166096904Y-92589523D01*
X166096904Y-92665714D01*
X166058809Y-92741904D01*
X166020714Y-92780000D01*
X165944523Y-92818095D01*
X165792142Y-92856190D01*
X165601666Y-92856190D01*
X165449285Y-92818095D01*
X165373095Y-92780000D01*
X165335000Y-92741904D01*
X165296904Y-92665714D01*
X165071000Y-92246666D02*
X165071000Y-91484761D01*
X165296904Y-91903809D02*
X165296904Y-91827619D01*
X165335000Y-91751428D01*
X165373095Y-91713333D01*
X165449285Y-91675238D01*
X165601666Y-91637142D01*
X165792142Y-91637142D01*
X165944523Y-91675238D01*
X166020714Y-91713333D01*
X166058809Y-91751428D01*
X166096904Y-91827619D01*
X166096904Y-91903809D01*
X166058809Y-91980000D01*
X166020714Y-92018095D01*
X165944523Y-92056190D01*
X165792142Y-92094285D01*
X165601666Y-92094285D01*
X165449285Y-92056190D01*
X165373095Y-92018095D01*
X165335000Y-91980000D01*
X165296904Y-91903809D01*
X168400000Y-109003571D02*
X168400000Y-108646428D01*
X168614285Y-109075000D02*
X167864285Y-108825000D01*
X168614285Y-108575000D01*
X168542857Y-107896428D02*
X168578571Y-107932142D01*
X168614285Y-108039285D01*
X168614285Y-108110714D01*
X168578571Y-108217857D01*
X168507142Y-108289285D01*
X168435714Y-108325000D01*
X168292857Y-108360714D01*
X168185714Y-108360714D01*
X168042857Y-108325000D01*
X167971428Y-108289285D01*
X167900000Y-108217857D01*
X167864285Y-108110714D01*
X167864285Y-108039285D01*
X167900000Y-107932142D01*
X167935714Y-107896428D01*
X168614285Y-107575000D02*
X167864285Y-107575000D01*
X168400000Y-107253571D02*
X168400000Y-106896428D01*
X168614285Y-107325000D02*
X167864285Y-107075000D01*
X168614285Y-106825000D01*
X161629285Y-108287142D02*
X161629285Y-108715714D01*
X161629285Y-108501428D02*
X160879285Y-108501428D01*
X160986428Y-108572857D01*
X161057857Y-108644285D01*
X161093571Y-108715714D01*
X160950714Y-108001428D02*
X160915000Y-107965714D01*
X160879285Y-107894285D01*
X160879285Y-107715714D01*
X160915000Y-107644285D01*
X160950714Y-107608571D01*
X161022142Y-107572857D01*
X161093571Y-107572857D01*
X161200714Y-107608571D01*
X161629285Y-108037142D01*
X161629285Y-107572857D01*
X161200714Y-107144285D02*
X161165000Y-107215714D01*
X161129285Y-107251428D01*
X161057857Y-107287142D01*
X161022142Y-107287142D01*
X160950714Y-107251428D01*
X160915000Y-107215714D01*
X160879285Y-107144285D01*
X160879285Y-107001428D01*
X160915000Y-106930000D01*
X160950714Y-106894285D01*
X161022142Y-106858571D01*
X161057857Y-106858571D01*
X161129285Y-106894285D01*
X161165000Y-106930000D01*
X161200714Y-107001428D01*
X161200714Y-107144285D01*
X161236428Y-107215714D01*
X161272142Y-107251428D01*
X161343571Y-107287142D01*
X161486428Y-107287142D01*
X161557857Y-107251428D01*
X161593571Y-107215714D01*
X161629285Y-107144285D01*
X161629285Y-107001428D01*
X161593571Y-106930000D01*
X161557857Y-106894285D01*
X161486428Y-106858571D01*
X161343571Y-106858571D01*
X161272142Y-106894285D01*
X161236428Y-106930000D01*
X161200714Y-107001428D01*
X160843571Y-106001428D02*
X161807857Y-106644285D01*
X160667500Y-105930000D02*
X160667500Y-105215714D01*
X160879285Y-105430000D02*
X160879285Y-105572857D01*
X160915000Y-105644285D01*
X160950714Y-105680000D01*
X161057857Y-105751428D01*
X161200714Y-105787142D01*
X161486428Y-105787142D01*
X161557857Y-105751428D01*
X161593571Y-105715714D01*
X161629285Y-105644285D01*
X161629285Y-105501428D01*
X161593571Y-105430000D01*
X161557857Y-105394285D01*
X161486428Y-105358571D01*
X161307857Y-105358571D01*
X161236428Y-105394285D01*
X161200714Y-105430000D01*
X161165000Y-105501428D01*
X161165000Y-105644285D01*
X161200714Y-105715714D01*
X161236428Y-105751428D01*
X161307857Y-105787142D01*
X160667500Y-105215714D02*
X160667500Y-104501428D01*
X161129285Y-104715714D02*
X161629285Y-104715714D01*
X160843571Y-104894285D02*
X161379285Y-105072857D01*
X161379285Y-104608571D01*
X153795000Y-107215714D02*
X153795000Y-106858571D01*
X154009285Y-107287142D02*
X153259285Y-107037142D01*
X154009285Y-106787142D01*
X153259285Y-106180000D02*
X153259285Y-106537142D01*
X153616428Y-106572857D01*
X153580714Y-106537142D01*
X153545000Y-106465714D01*
X153545000Y-106287142D01*
X153580714Y-106215714D01*
X153616428Y-106180000D01*
X153687857Y-106144285D01*
X153866428Y-106144285D01*
X153937857Y-106180000D01*
X153973571Y-106215714D01*
X154009285Y-106287142D01*
X154009285Y-106465714D01*
X153973571Y-106537142D01*
X153937857Y-106572857D01*
X156718095Y-101052380D02*
X156718095Y-101861904D01*
X156765714Y-101957142D01*
X156813333Y-102004761D01*
X156908571Y-102052380D01*
X157099047Y-102052380D01*
X157194285Y-102004761D01*
X157241904Y-101957142D01*
X157289523Y-101861904D01*
X157289523Y-101052380D01*
X158289523Y-102052380D02*
X157718095Y-102052380D01*
X158003809Y-102052380D02*
X158003809Y-101052380D01*
X157908571Y-101195238D01*
X157813333Y-101290476D01*
X157718095Y-101338095D01*
X156932380Y-97099047D02*
X156932380Y-96432380D01*
X157932380Y-96860952D01*
X157265714Y-95622857D02*
X157932380Y-95622857D01*
X156884761Y-95860952D02*
X157599047Y-96099047D01*
X157599047Y-95480000D01*
X157932380Y-94622857D02*
X157932380Y-95099047D01*
X156932380Y-95099047D01*
X157884761Y-94337142D02*
X157932380Y-94194285D01*
X157932380Y-93956190D01*
X157884761Y-93860952D01*
X157837142Y-93813333D01*
X157741904Y-93765714D01*
X157646666Y-93765714D01*
X157551428Y-93813333D01*
X157503809Y-93860952D01*
X157456190Y-93956190D01*
X157408571Y-94146666D01*
X157360952Y-94241904D01*
X157313333Y-94289523D01*
X157218095Y-94337142D01*
X157122857Y-94337142D01*
X157027619Y-94289523D01*
X156980000Y-94241904D01*
X156932380Y-94146666D01*
X156932380Y-93908571D01*
X156980000Y-93765714D01*
X157932380Y-92813333D02*
X157932380Y-93384761D01*
X157932380Y-93099047D02*
X156932380Y-93099047D01*
X157075238Y-93194285D01*
X157170476Y-93289523D01*
X157218095Y-93384761D01*
X156932380Y-92480000D02*
X156932380Y-91860952D01*
X157313333Y-92194285D01*
X157313333Y-92051428D01*
X157360952Y-91956190D01*
X157408571Y-91908571D01*
X157503809Y-91860952D01*
X157741904Y-91860952D01*
X157837142Y-91908571D01*
X157884761Y-91956190D01*
X157932380Y-92051428D01*
X157932380Y-92337142D01*
X157884761Y-92432380D01*
X157837142Y-92480000D01*
X157360952Y-91289523D02*
X157313333Y-91384761D01*
X157265714Y-91432380D01*
X157170476Y-91480000D01*
X157122857Y-91480000D01*
X157027619Y-91432380D01*
X156980000Y-91384761D01*
X156932380Y-91289523D01*
X156932380Y-91099047D01*
X156980000Y-91003809D01*
X157027619Y-90956190D01*
X157122857Y-90908571D01*
X157170476Y-90908571D01*
X157265714Y-90956190D01*
X157313333Y-91003809D01*
X157360952Y-91099047D01*
X157360952Y-91289523D01*
X157408571Y-91384761D01*
X157456190Y-91432380D01*
X157551428Y-91480000D01*
X157741904Y-91480000D01*
X157837142Y-91432380D01*
X157884761Y-91384761D01*
X157932380Y-91289523D01*
X157932380Y-91099047D01*
X157884761Y-91003809D01*
X157837142Y-90956190D01*
X157741904Y-90908571D01*
X157551428Y-90908571D01*
X157456190Y-90956190D01*
X157408571Y-91003809D01*
X157360952Y-91099047D01*
X147407380Y-102981904D02*
X148216904Y-102981904D01*
X148312142Y-102934285D01*
X148359761Y-102886666D01*
X148407380Y-102791428D01*
X148407380Y-102600952D01*
X148359761Y-102505714D01*
X148312142Y-102458095D01*
X148216904Y-102410476D01*
X147407380Y-102410476D01*
X147502619Y-101981904D02*
X147455000Y-101934285D01*
X147407380Y-101839047D01*
X147407380Y-101600952D01*
X147455000Y-101505714D01*
X147502619Y-101458095D01*
X147597857Y-101410476D01*
X147693095Y-101410476D01*
X147835952Y-101458095D01*
X148407380Y-102029523D01*
X148407380Y-101410476D01*
X132350238Y-101735000D02*
X132255000Y-101687380D01*
X132112142Y-101687380D01*
X131969285Y-101735000D01*
X131874047Y-101830238D01*
X131826428Y-101925476D01*
X131778809Y-102115952D01*
X131778809Y-102258809D01*
X131826428Y-102449285D01*
X131874047Y-102544523D01*
X131969285Y-102639761D01*
X132112142Y-102687380D01*
X132207380Y-102687380D01*
X132350238Y-102639761D01*
X132397857Y-102592142D01*
X132397857Y-102258809D01*
X132207380Y-102258809D01*
X132778809Y-102401666D02*
X133255000Y-102401666D01*
X132683571Y-102687380D02*
X133016904Y-101687380D01*
X133350238Y-102687380D01*
X134159761Y-102687380D02*
X133683571Y-102687380D01*
X133683571Y-101687380D01*
X134445476Y-101782619D02*
X134493095Y-101735000D01*
X134588333Y-101687380D01*
X134826428Y-101687380D01*
X134921666Y-101735000D01*
X134969285Y-101782619D01*
X135016904Y-101877857D01*
X135016904Y-101973095D01*
X134969285Y-102115952D01*
X134397857Y-102687380D01*
X135016904Y-102687380D01*
X135397857Y-101782619D02*
X135445476Y-101735000D01*
X135540714Y-101687380D01*
X135778809Y-101687380D01*
X135874047Y-101735000D01*
X135921666Y-101782619D01*
X135969285Y-101877857D01*
X135969285Y-101973095D01*
X135921666Y-102115952D01*
X135350238Y-102687380D01*
X135969285Y-102687380D01*
X136255000Y-101687380D02*
X136588333Y-102687380D01*
X136921666Y-101687380D01*
X137778809Y-102687380D02*
X137207380Y-102687380D01*
X137493095Y-102687380D02*
X137493095Y-101687380D01*
X137397857Y-101830238D01*
X137302619Y-101925476D01*
X137207380Y-101973095D01*
X138397857Y-101687380D02*
X138493095Y-101687380D01*
X138588333Y-101735000D01*
X138635952Y-101782619D01*
X138683571Y-101877857D01*
X138731190Y-102068333D01*
X138731190Y-102306428D01*
X138683571Y-102496904D01*
X138635952Y-102592142D01*
X138588333Y-102639761D01*
X138493095Y-102687380D01*
X138397857Y-102687380D01*
X138302619Y-102639761D01*
X138255000Y-102592142D01*
X138207380Y-102496904D01*
X138159761Y-102306428D01*
X138159761Y-102068333D01*
X138207380Y-101877857D01*
X138255000Y-101782619D01*
X138302619Y-101735000D01*
X138397857Y-101687380D01*
D11*
X167005000Y-103445000D02*
X174685000Y-103445000D01*
X167005000Y-106105000D02*
X174685000Y-106105000D01*
X164405000Y-106105000D02*
X164405000Y-104775000D01*
X174685000Y-106105000D02*
X174685000Y-103445000D01*
X167005000Y-106105000D02*
X167005000Y-103445000D01*
X165735000Y-106105000D02*
X164405000Y-106105000D01*
X159730000Y-83760000D02*
X155230000Y-83760000D01*
X159730000Y-104200000D02*
X159730000Y-83760000D01*
X158480000Y-104200000D02*
X159730000Y-104200000D01*
X155230000Y-104200000D02*
X156480000Y-104200000D01*
X155230000Y-83760000D02*
X155230000Y-104200000D01*
X158480000Y-104200000D02*
G75*
G03*
X156480000Y-104200000I-1000000J0D01*
G01*
X150560000Y-99970000D02*
X119960000Y-99970000D01*
X119960000Y-99970000D02*
X119960000Y-104470000D01*
X119960000Y-104470000D02*
X150560000Y-104470000D01*
X150560000Y-101220000D02*
X150560000Y-99970000D01*
X150560000Y-104470000D02*
X150560000Y-103220000D01*
X150560000Y-101220000D02*
G75*
G03*
X150560000Y-103220000I0J-1000000D01*
G01*
X154880000Y-108010000D02*
X154880000Y-106680000D01*
X157480000Y-108010000D02*
X157480000Y-105350000D01*
X157480000Y-105350000D02*
X160080000Y-105350000D01*
X156210000Y-108010000D02*
X154880000Y-108010000D01*
X157480000Y-108010000D02*
X160080000Y-108010000D01*
X160080000Y-108010000D02*
X160080000Y-105350000D01*
X167005000Y-102295000D02*
X174685000Y-102295000D01*
X165735000Y-102295000D02*
X164405000Y-102295000D01*
X174685000Y-102295000D02*
X174685000Y-97095000D01*
X164405000Y-97095000D02*
X174685000Y-97095000D01*
X164405000Y-99695000D02*
X164405000Y-97095000D01*
X164405000Y-102295000D02*
X164405000Y-100965000D01*
X167005000Y-102295000D02*
X167005000Y-99695000D01*
X167005000Y-99695000D02*
X164405000Y-99695000D01*
%LPC*%
D12*
X165735000Y-104775000D03*
D13*
X168275000Y-104775000D03*
X170815000Y-104775000D03*
X173355000Y-104775000D03*
D14*
X161290000Y-102870000D03*
D15*
X161290000Y-100330000D03*
X161290000Y-97790000D03*
X161290000Y-95250000D03*
X161290000Y-92710000D03*
X161290000Y-90170000D03*
X161290000Y-87630000D03*
X161290000Y-85090000D03*
X153670000Y-85090000D03*
X153670000Y-87630000D03*
X153670000Y-90170000D03*
X153670000Y-92710000D03*
X153670000Y-95250000D03*
X153670000Y-97790000D03*
X153670000Y-100330000D03*
X153670000Y-102870000D03*
D16*
X149230000Y-98410000D03*
D17*
X146690000Y-98410000D03*
X144150000Y-98410000D03*
X141610000Y-98410000D03*
X139070000Y-98410000D03*
X136530000Y-98410000D03*
X133990000Y-98410000D03*
X131450000Y-98410000D03*
X128910000Y-98410000D03*
X126370000Y-98410000D03*
X123830000Y-98410000D03*
X121290000Y-98410000D03*
X121290000Y-106030000D03*
X123830000Y-106030000D03*
X126370000Y-106030000D03*
X128910000Y-106030000D03*
X131450000Y-106030000D03*
X133990000Y-106030000D03*
X136530000Y-106030000D03*
X139070000Y-106030000D03*
X141610000Y-106030000D03*
X144150000Y-106030000D03*
X146690000Y-106030000D03*
X149230000Y-106030000D03*
D12*
X156210000Y-106680000D03*
D13*
X158750000Y-106680000D03*
D12*
X165735000Y-100965000D03*
D13*
X165735000Y-98425000D03*
X168275000Y-100965000D03*
X168275000Y-98425000D03*
X170815000Y-100965000D03*
X170815000Y-98425000D03*
X173355000Y-100965000D03*
X173355000Y-98425000D03*
M02*
